<svg width="300" height="198" viewBox="0 0 300 198" fill="none" xmlns="http://www.w3.org/2000/svg">
<path d="M110.088 94.764C79.965 94.764 55.554 70.896 55.554 41.457C55.554 24.986 63.195 10.276 75.19 0.5C38.728 1.184 9.36401 30.22 9.36401 66.017C9.36401 102.226 39.412 131.591 76.492 131.591C106.54 131.591 131.972 112.293 140.53 85.69C131.831 91.412 121.362 94.764 110.088 94.764Z" fill="url(#paint0_linear_9_109)"/>
<path d="M251.62 76.795C245.646 44.06 217.068 19.227 182.591 19.227C158.377 19.227 137.028 31.484 124.396 50.127C120.735 48.376 116.699 47.318 112.364 47.318C96.848 47.318 84.273 59.893 84.273 75.409L84.292 75.643L79.591 75.409C51.154 75.409 28.091 98.472 28.091 126.909C28.091 128.651 28.185 130.345 28.353 132.04C12.36 134.213 0 147.781 0 164.364C0 182.473 14.673 197.137 32.773 197.137H238.773C272.398 197.137 299.637 169.889 299.637 136.273C299.636 107.068 279.055 82.685 251.62 76.795Z" fill="url(#paint1_linear_9_109)"/>
<defs>
<linearGradient id="paint0_linear_9_109" x1="74.947" y1="0.5" x2="74.947" y2="131.591" gradientUnits="userSpaceOnUse">
<stop stop-color="#9A9EFF"/>
<stop offset="1" stop-color="#31155F"/>
</linearGradient>
<linearGradient id="paint1_linear_9_109" x1="149.818" y1="19.227" x2="149.818" y2="197.137" gradientUnits="userSpaceOnUse">
<stop stop-color="#303030"/>
<stop offset="1" stop-color="#606060"/>
</linearGradient>
</defs>
</svg>
