<svg width="303" height="263" viewBox="0 0 303 263" fill="none" xmlns="http://www.w3.org/2000/svg">
<ellipse cx="174.471" cy="131.5" rx="128.529" ry="131.5" fill="url(#paint0_linear_25_87)"/>
<path d="M162.256 217.185C162.256 219.68 161.979 222.099 161.452 224.418C158.423 237.834 147.14 247.798 133.683 247.798H28.5682C20.6807 247.798 13.5363 244.37 8.36727 238.832C3.19828 233.293 0 225.642 0 217.185C0 200.277 12.7884 186.568 28.5682 186.568H30.6188C31.8088 178.016 35.849 170.456 41.6717 165.033C47.4898 159.61 55.0904 156.329 63.4059 156.329C67.0604 156.329 70.5738 156.974 73.8615 158.143C77.309 153.28 81.7631 149.283 86.8851 146.496C88.2396 145.76 89.6412 145.11 91.0852 144.551C95.0971 142.993 99.4289 142.142 103.944 142.142C124.804 142.142 141.712 160.26 141.712 182.612V187.803C147.648 189.663 152.784 193.529 156.438 198.669C160.088 203.81 162.256 210.225 162.256 217.185Z" fill="url(#paint1_linear_25_87)"/>
<path d="M261.406 64.5651C258.813 41.6885 240.144 23.9437 217.496 23.9437C194.849 23.9437 176.18 41.6885 173.586 64.5651C157.865 64.5651 145.119 77.8472 145.119 94.232C145.119 110.617 157.863 123.899 173.585 123.899H261.408C277.129 123.899 289.874 110.617 289.874 94.232C289.874 77.8472 277.128 64.5651 261.406 64.5651Z" fill="url(#paint2_linear_25_87)"/>
<defs>
<linearGradient id="paint0_linear_25_87" x1="95.5" y1="12" x2="246.5" y2="248.5" gradientUnits="userSpaceOnUse">
<stop stop-color="#0085FF"/>
<stop offset="1" stop-color="#CB00FE"/>
</linearGradient>
<linearGradient id="paint1_linear_25_87" x1="81.1282" y1="142.142" x2="81.1282" y2="247.798" gradientUnits="userSpaceOnUse">
<stop stop-color="#0085FF"/>
<stop offset="1" stop-color="#003565"/>
</linearGradient>
<linearGradient id="paint2_linear_25_87" x1="217.496" y1="23.9437" x2="217.496" y2="123.899" gradientUnits="userSpaceOnUse">
<stop stop-color="#0085FF"/>
<stop offset="1" stop-color="#002B53"/>
</linearGradient>
</defs>
</svg>
