<svg width="1211" height="1050" viewBox="0 0 1211 1050" fill="none" xmlns="http://www.w3.org/2000/svg">
<ellipse cx="697.309" cy="525" rx="513.691" ry="525" fill="url(#paint0_linear_21_113)"/>
<path d="M648.49 867.09C648.49 877.05 647.381 886.708 645.275 895.964C633.17 949.527 588.073 989.306 534.291 989.306H114.178C82.6544 989.306 54.1003 975.622 33.4415 953.511C12.7826 931.398 0 900.854 0 867.09C0 799.584 51.1115 744.854 114.178 744.854H122.374C127.13 710.708 143.278 680.526 166.549 658.876C189.802 637.226 220.18 624.127 253.414 624.127C268.02 624.127 282.062 626.702 295.202 631.37C308.981 611.953 326.783 595.997 347.254 584.87C352.667 581.933 358.269 579.337 364.04 577.104C380.075 570.886 397.388 567.486 415.434 567.486C498.802 567.486 566.381 639.821 566.381 729.059V749.786C590.104 757.21 610.631 772.643 625.237 793.167C639.824 813.689 648.49 839.303 648.49 867.09Z" fill="url(#paint1_linear_21_113)"/>
<path d="M1044.76 257.769C1034.4 166.437 959.782 95.5925 869.267 95.5925C778.752 95.5925 704.137 166.437 693.772 257.769C630.939 257.769 579.998 310.797 579.998 376.211C579.998 441.625 630.933 494.653 693.766 494.653H1044.77C1107.6 494.653 1158.54 441.625 1158.54 376.211C1158.54 310.797 1107.6 257.769 1044.76 257.769Z" fill="url(#paint2_linear_21_113)"/>
<defs>
<linearGradient id="paint0_linear_21_113" x1="697.309" y1="0" x2="697.309" y2="1050" gradientUnits="userSpaceOnUse">
<stop offset="0.369792" stop-color="#FAFF00"/>
<stop offset="1" stop-color="#FF9900"/>
</linearGradient>
<linearGradient id="paint1_linear_21_113" x1="324.245" y1="567.486" x2="324.245" y2="989.306" gradientUnits="userSpaceOnUse">
<stop stop-color="#00A4FF"/>
<stop offset="1" stop-color="white"/>
</linearGradient>
<linearGradient id="paint2_linear_21_113" x1="869.268" y1="95.5925" x2="869.268" y2="494.653" gradientUnits="userSpaceOnUse">
<stop stop-color="#00A4FF"/>
<stop offset="1" stop-color="white"/>
</linearGradient>
</defs>
</svg>
