<svg width="297" height="297" viewBox="0 0 297 297" fill="none" xmlns="http://www.w3.org/2000/svg">
<path d="M149.18 242.567L127.522 180.485C126.76 178.297 126.76 175.913 127.522 173.724L149.221 111.516L138.555 50.351C124.01 34.066 102.881 23.788 79.381 23.788C35.611 23.789 0 59.398 0 103.17C0 126.253 7.848 149.727 23.324 172.942C35.338 190.962 51.988 208.899 72.812 226.252C105.396 253.405 137.533 270.359 143.097 273.212L149.18 242.567Z" fill="white"/>
<path d="M217.619 23.7889C194.543 23.7889 173.748 33.6949 159.234 49.4719L169.898 110.618C170.199 112.34 170.054 114.11 169.478 115.761L148.08 177.107L169.478 238.446C170.082 240.174 170.21 242.029 169.855 243.824L165.251 267.015C178.649 259.355 201.31 245.319 224.189 226.253C245.013 208.899 261.664 190.963 273.677 172.942C289.154 149.727 297 126.253 297 103.17C297 59.3979 261.391 23.7889 217.619 23.7889Z" fill="white"/>
</svg>
