<svg width="830" height="830" viewBox="0 0 830 830" fill="none" xmlns="http://www.w3.org/2000/svg">
<g clip-path="url(#clip0_51_2)">
<path d="M401.054 329.649C327.45 482.75 336.192 464.567 280.451 580.511C124.62 511.428 57.9607 331.313 131.564 178.213C205.168 25.1124 391.162 -42.9974 546.993 26.0853C473.01 179.975 474.657 176.549 401.054 329.649Z" fill="url(#paint0_linear_51_2)"/>
<path d="M695.387 428.69C621.546 581.605 435.744 649.266 280.388 579.813C341.901 452.428 340.248 455.85 414.089 302.935C487.93 150.019 492.886 139.756 547.79 26.0569C703.146 95.5095 769.228 275.774 695.387 428.69Z" fill="url(#paint1_linear_51_2)"/>
<path d="M481.821 348.562C480.525 348.562 479.228 348.071 478.239 347.088C476.261 345.123 476.261 341.938 478.239 339.973L502.66 315.718C504.638 313.753 507.845 313.753 509.822 315.718C511.8 317.683 511.8 320.868 509.822 322.833L485.402 347.088C484.413 348.071 483.117 348.562 481.821 348.562Z" fill="url(#paint2_linear_51_2)"/>
<path d="M377.616 348.051C376.32 348.051 375.023 347.559 374.034 346.577C372.056 344.612 372.056 341.427 374.034 339.462L398.455 315.207C400.433 313.242 403.64 313.242 405.617 315.207C407.595 317.172 407.595 320.357 405.617 322.322L381.197 346.577C380.208 347.559 378.912 348.051 377.616 348.051Z" fill="url(#paint3_linear_51_2)"/>
<path d="M591.892 348.562C590.595 348.562 589.299 348.071 588.31 347.088C586.332 345.123 586.332 341.938 588.31 339.973L612.73 315.718C614.708 313.753 617.915 313.753 619.893 315.718C621.871 317.683 621.871 320.868 619.893 322.833L595.473 347.088C594.484 348.071 593.188 348.562 591.892 348.562Z" fill="url(#paint4_linear_51_2)"/>
<path d="M432.402 348.562C431.105 348.562 429.809 348.071 428.82 347.088C426.842 345.123 426.842 341.938 428.82 339.973L453.24 315.718C455.218 313.753 458.426 313.753 460.403 315.718C462.381 317.683 462.381 320.868 460.403 322.833L435.983 347.088C434.994 348.071 433.698 348.562 432.402 348.562Z" fill="url(#paint5_linear_51_2)"/>
<path d="M536.856 348.562C535.56 348.562 534.264 348.071 533.275 347.088C531.297 345.123 531.297 341.938 533.275 339.973L557.695 315.718C559.673 313.753 562.88 313.753 564.858 315.718C566.836 317.683 566.836 320.868 564.858 322.833L540.437 347.088C539.449 348.071 538.153 348.562 536.856 348.562Z" fill="url(#paint6_linear_51_2)"/>
<path d="M605.754 155.707C589.177 121.448 553.911 97.7979 513.083 97.7979C468.613 97.7979 430.743 125.857 416.433 165.122C381.225 166.833 353.207 195.726 353.207 231.121C353.207 267.616 382.994 297.202 419.739 297.202H594.935C634.499 297.202 666.572 265.347 666.572 226.051C666.571 190.408 640.184 160.888 605.754 155.707Z" fill="url(#paint7_linear_51_2)"/>
<path d="M513 97.5C468.032 97.5 431.403 123.373 416.932 163.077C381.331 164.808 353 194.023 353 229.814C353 266.718 379.777 297 416.932 297L513 97.5Z" fill="url(#paint8_linear_51_2)"/>
<path d="M423.947 446.182C423.947 451.974 423.276 457.591 422.003 462.974C414.679 494.125 387.396 517.26 354.859 517.26H100.698C81.6264 517.26 64.3517 509.301 51.8535 496.442C39.3552 483.581 31.6219 465.818 31.6219 446.182C31.6219 406.922 62.5435 375.092 100.698 375.092H105.656C108.534 355.234 118.302 337.681 132.381 325.089C146.449 312.498 164.827 304.88 184.933 304.88C193.77 304.88 202.265 306.378 210.214 309.093C218.55 297.8 229.32 288.52 241.704 282.049C244.98 280.341 248.369 278.831 251.86 277.532C261.561 273.916 272.035 271.939 282.952 271.939C333.389 271.939 374.272 314.007 374.272 365.906V377.96C388.624 382.278 401.043 391.254 409.88 403.19C418.704 415.125 423.947 430.021 423.947 446.182Z" fill="url(#paint9_linear_51_2)"/>
<path d="M63.094 555.965C63.094 558.032 64.8553 559.723 67.0079 559.723C69.1606 559.723 70.9218 558.032 70.9218 555.965V547.508L77.3015 550.816C77.8886 551.116 78.5149 551.267 79.1411 551.267C80.5501 551.267 81.8808 550.552 82.5853 549.275C83.5638 547.471 82.8593 545.178 80.9806 544.201L75.2272 541.232L80.9806 538.262C82.8984 537.285 83.603 534.993 82.5853 533.188C81.5677 531.384 79.1802 530.67 77.3015 531.648L70.9218 534.955V526.461C70.9218 524.394 69.1606 522.702 67.0079 522.702C64.8553 522.702 63.094 524.394 63.094 526.461V534.955L56.7143 531.648C54.7965 530.67 52.4481 531.347 51.4305 533.188C50.4129 535.03 51.1174 537.285 53.0352 538.262L58.7887 541.232L53.0352 544.201C51.1174 545.178 50.4129 547.471 51.4305 549.275C52.135 550.552 53.5049 551.267 54.8748 551.267C55.501 551.267 56.1272 551.116 56.7143 550.816L63.094 547.508V555.965Z" fill="url(#paint10_linear_51_2)"/>
<path d="M97.8889 554.875C98.476 555.214 99.1414 555.364 99.7676 555.364C101.137 555.364 102.468 554.65 103.212 553.41L115.345 532.362C116.402 530.558 115.697 528.266 113.819 527.251C111.94 526.236 109.552 526.912 108.496 528.717L96.3625 549.764C95.3057 551.568 96.0102 553.861 97.8889 554.875Z" fill="url(#paint11_linear_51_2)"/>
<path d="M160.59 533.188C159.572 531.347 157.224 530.67 155.306 531.648L148.77 534.993V526.461C148.77 524.394 147.009 522.702 144.856 522.702C142.703 522.702 140.942 524.394 140.942 526.461V534.993L134.406 531.648C132.488 530.67 130.14 531.384 129.122 533.188C128.105 535.03 128.848 537.285 130.727 538.262L136.519 541.232L130.727 544.201C128.809 545.178 128.105 547.433 129.122 549.275C129.827 550.552 131.197 551.267 132.566 551.267C133.193 551.267 133.819 551.116 134.406 550.816L140.942 547.471V556.002C140.942 558.069 142.703 559.761 144.856 559.761C147.009 559.761 148.77 558.069 148.77 556.002V547.471L155.306 550.816C155.893 551.116 156.52 551.267 157.146 551.267C158.555 551.267 159.886 550.552 160.59 549.275C161.608 547.433 160.903 545.178 158.985 544.201L153.193 541.232L158.985 538.262C160.903 537.285 161.608 535.03 160.59 533.188Z" fill="url(#paint12_linear_51_2)"/>
<path d="M175.932 554.875C176.52 555.214 177.185 555.364 177.811 555.364C179.181 555.364 180.512 554.65 181.255 553.41L193.389 532.362C194.445 530.558 193.741 528.266 191.862 527.251C189.983 526.236 187.596 526.912 186.539 528.717L174.406 549.764C173.349 551.568 174.054 553.861 175.932 554.875Z" fill="url(#paint13_linear_51_2)"/>
<path d="M236.716 544.201L230.962 541.232L236.716 538.262C238.634 537.285 239.338 534.993 238.32 533.188C237.303 531.384 234.915 530.67 233.037 531.648L226.657 534.955V526.461C226.657 524.394 224.896 522.702 222.743 522.702C220.59 522.702 218.829 524.394 218.829 526.461V534.955L212.449 531.648C210.532 530.67 208.183 531.347 207.166 533.188C206.148 535.03 206.852 537.285 208.77 538.262L214.524 541.232L208.77 544.201C206.852 545.178 206.148 547.471 207.166 549.275C207.87 550.552 209.24 551.267 210.61 551.267C211.236 551.267 211.862 551.116 212.449 550.816L218.829 547.508V555.965C218.829 558.032 220.59 559.723 222.743 559.723C224.896 559.723 226.657 558.032 226.657 555.965V547.508L233.037 550.816C233.624 551.116 234.25 551.267 234.876 551.267C236.285 551.267 237.616 550.552 238.32 549.275C239.338 547.471 238.634 545.178 236.716 544.201Z" fill="url(#paint14_linear_51_2)"/>
<path d="M61.1369 601.705C61.724 602.043 62.3894 602.194 63.0156 602.194C64.4246 602.194 65.7554 601.517 66.4599 600.239L78.593 579.192C79.6498 577.388 78.9453 575.095 77.0666 574.081C75.1879 573.066 72.8004 573.742 71.7437 575.546L59.6105 596.594C58.5538 598.398 59.2583 600.69 61.1369 601.705Z" fill="url(#paint15_linear_51_2)"/>
<path d="M104.034 594.038V602.495C104.034 604.562 105.795 606.253 107.948 606.253C110.1 606.253 111.862 604.562 111.862 602.495V594.038L118.241 597.346C118.828 597.646 119.455 597.797 120.081 597.797C121.49 597.797 122.821 597.082 123.525 595.805C124.582 594.001 123.838 591.708 121.96 590.731L116.206 587.762L121.96 584.792C123.877 583.815 124.582 581.523 123.564 579.718C122.547 577.877 120.159 577.2 118.28 578.178L111.901 581.485V572.991C111.901 570.924 110.14 569.232 107.987 569.232C105.834 569.232 104.073 570.924 104.073 572.991V581.447L97.6933 578.14C95.7754 577.163 93.4271 577.839 92.4095 579.681C91.3918 581.523 92.0964 583.778 94.0142 584.755L99.7676 587.724L93.975 590.731C92.0572 591.708 91.3527 594.001 92.3703 595.805C93.0748 597.082 94.4447 597.797 95.8146 597.797C96.4408 597.797 97.067 597.646 97.6541 597.346L104.034 594.038Z" fill="url(#paint16_linear_51_2)"/>
<path d="M140.746 602.194C142.116 602.194 143.486 601.517 144.19 600.239L156.323 579.192C157.38 577.388 156.676 575.095 154.797 574.081C152.918 573.066 150.531 573.742 149.474 575.546L137.341 596.594C136.284 598.398 136.989 600.69 138.867 601.705C139.454 602.043 140.12 602.194 140.746 602.194Z" fill="url(#paint17_linear_51_2)"/>
<path d="M201.608 595.805C202.625 593.963 201.882 591.708 200.003 590.731L194.21 587.762L200.003 584.792C201.921 583.815 202.625 581.56 201.608 579.718C200.59 577.877 198.242 577.2 196.324 578.178L189.788 581.523V572.991C189.788 570.924 188.026 569.232 185.874 569.232C183.721 569.232 181.96 570.924 181.96 572.991V581.523L175.424 578.178C173.506 577.2 171.157 577.914 170.14 579.718C169.122 581.56 169.866 583.815 171.744 584.792L177.537 587.762L171.744 590.731C169.827 591.708 169.122 593.963 170.14 595.805C170.844 597.082 172.214 597.797 173.584 597.797C174.21 597.797 174.836 597.646 175.424 597.346L181.96 594.001V602.532C181.96 604.599 183.721 606.291 185.874 606.291C188.026 606.291 189.788 604.599 189.788 602.532V594.001L196.324 597.346C196.911 597.646 197.537 597.797 198.163 597.797C199.572 597.797 200.903 597.082 201.608 595.805Z" fill="url(#paint18_linear_51_2)"/>
<path d="M232.841 574.081C230.962 573.066 228.575 573.742 227.518 575.546L215.385 596.594C214.328 598.398 215.033 600.69 216.911 601.705C217.498 602.043 218.164 602.194 218.79 602.194C220.199 602.194 221.53 601.517 222.234 600.239L234.367 579.192C235.424 577.388 234.72 575.095 232.841 574.081Z" fill="url(#paint19_linear_51_2)"/>
<path d="M252.802 550.232C253.389 550.57 254.054 550.72 254.68 550.72C256.05 550.72 257.381 550.006 258.125 548.766L270.258 527.718C271.315 525.914 270.61 523.622 268.731 522.607C266.853 521.592 264.465 522.269 263.408 524.073L251.275 545.12C250.219 546.924 250.923 549.217 252.802 550.232Z" fill="url(#paint20_linear_51_2)"/>
<path d="M315.503 528.545C314.485 526.703 312.137 526.027 310.219 527.004L303.683 530.349V521.817C303.683 519.75 301.922 518.059 299.769 518.059C297.616 518.059 295.855 519.75 295.855 521.817V530.349L289.319 527.004C287.401 526.027 285.053 526.741 284.035 528.545C283.017 530.386 283.761 532.641 285.64 533.619L291.432 536.588L285.64 539.557C283.722 540.534 283.017 542.789 284.035 544.631C284.74 545.909 286.109 546.623 287.479 546.623C288.105 546.623 288.732 546.472 289.319 546.172L295.855 542.827V551.358C295.855 553.426 297.616 555.117 299.769 555.117C301.922 555.117 303.683 553.426 303.683 551.358V542.827L310.219 546.172C310.806 546.472 311.432 546.623 312.059 546.623C313.468 546.623 314.798 545.909 315.503 544.631C316.521 542.789 315.816 540.534 313.898 539.557L308.106 536.588L313.898 533.619C315.816 532.641 316.521 530.386 315.503 528.545Z" fill="url(#paint21_angular_51_2)"/>
<path d="M330.845 550.232C331.433 550.57 332.098 550.72 332.724 550.72C334.094 550.72 335.425 550.006 336.168 548.766L348.302 527.718C349.358 525.914 348.654 523.622 346.775 522.607C344.896 521.592 342.509 522.269 341.452 524.073L329.319 545.12C328.262 546.924 328.967 549.217 330.845 550.232Z" fill="url(#paint22_linear_51_2)"/>
<path d="M391.628 539.557L385.875 536.588L391.628 533.619C393.546 532.641 394.251 530.349 393.233 528.545C392.216 526.741 389.828 526.027 387.949 527.004L381.57 530.311V521.817C381.57 519.75 379.808 518.059 377.656 518.059C375.503 518.059 373.742 519.75 373.742 521.817V530.311L367.362 527.004C365.444 526.027 363.096 526.703 362.078 528.545C361.061 530.386 361.765 532.641 363.683 533.619L369.437 536.588L363.683 539.557C361.765 540.534 361.061 542.827 362.078 544.631C362.783 545.909 364.153 546.623 365.523 546.623C366.149 546.623 366.775 546.472 367.362 546.172L373.742 542.864V551.321C373.742 553.388 375.503 555.079 377.656 555.079C379.808 555.079 381.57 553.388 381.57 551.321V542.864L387.949 546.172C388.536 546.472 389.163 546.623 389.789 546.623C391.198 546.623 392.529 545.909 393.233 544.631C394.251 542.827 393.546 540.534 391.628 539.557Z" fill="url(#paint23_linear_51_2)"/>
<path d="M258.946 589.394V597.851C258.946 599.918 260.708 601.609 262.86 601.609C265.013 601.609 266.774 599.918 266.774 597.851V589.394L273.154 592.702C273.741 593.002 274.367 593.153 274.993 593.153C276.403 593.153 277.733 592.438 278.438 591.161C279.495 589.357 278.751 587.064 276.872 586.087L271.119 583.118L276.872 580.148C278.79 579.171 279.495 576.878 278.477 575.074C277.459 573.233 275.072 572.556 273.193 573.533L266.813 576.841V568.347C266.813 566.28 265.052 564.588 262.899 564.588C260.747 564.588 258.986 566.28 258.986 568.347V576.803L252.606 573.496C250.688 572.519 248.34 573.195 247.322 575.037C246.304 576.878 247.009 579.134 248.927 580.111L254.68 583.08L248.888 586.087C246.97 587.064 246.265 589.357 247.283 591.161C247.987 592.438 249.357 593.153 250.727 593.153C251.353 593.153 251.98 593.002 252.567 592.702L258.946 589.394Z" fill="url(#paint24_linear_51_2)"/>
<path d="M295.659 597.55C297.029 597.55 298.399 596.873 299.104 595.596L311.237 574.548C312.294 572.744 311.589 570.452 309.71 569.437C307.832 568.422 305.444 569.099 304.387 570.903L292.254 591.95C291.198 593.754 291.902 596.047 293.781 597.061C294.368 597.4 295.033 597.55 295.659 597.55Z" fill="url(#paint25_linear_51_2)"/>
<path d="M356.521 591.161C357.538 589.319 356.794 587.064 354.916 586.087L349.123 583.118L354.916 580.148C356.834 579.171 357.538 576.916 356.521 575.074C355.503 573.233 353.155 572.556 351.237 573.533L344.7 576.878V568.347C344.7 566.28 342.939 564.588 340.787 564.588C338.634 564.588 336.873 566.28 336.873 568.347V576.878L330.336 573.533C328.419 572.556 326.07 573.27 325.053 575.074C324.035 576.916 324.779 579.171 326.657 580.148L332.45 583.118L326.657 586.087C324.739 587.064 324.035 589.319 325.053 591.161C325.757 592.438 327.127 593.153 328.497 593.153C329.123 593.153 329.749 593.002 330.336 592.702L336.873 589.357V597.888C336.873 599.955 338.634 601.647 340.787 601.647C342.939 601.647 344.7 599.955 344.7 597.888V589.357L351.237 592.702C351.824 593.002 352.45 593.153 353.076 593.153C354.485 593.153 355.816 592.438 356.521 591.161Z" fill="url(#paint26_linear_51_2)"/>
<path d="M387.754 569.437C385.875 568.422 383.488 569.099 382.431 570.903L370.298 591.95C369.241 593.754 369.946 596.047 371.824 597.061C372.411 597.4 373.077 597.55 373.703 597.55C375.112 597.55 376.443 596.873 377.147 595.596L389.28 574.548C390.337 572.744 389.633 570.452 387.754 569.437Z" fill="url(#paint27_linear_51_2)"/>
<path d="M424 446.317C424 452.118 423.325 457.743 422.045 463.134C414.68 494.33 387.245 517.498 354.527 517.498L310 518L377.5 379C391.932 383.324 400.968 391.309 409.854 403.262C418.728 415.214 424 430.133 424 446.317Z" fill="url(#paint28_linear_51_2)"/>
<path d="M323.602 674.5C322.202 678.967 320.785 683.1 319.352 686.9C317.918 690.7 316.485 694.4 315.052 698H310.202C308.435 692.9 306.868 687.517 305.502 681.85C304.168 676.183 302.918 670.017 301.752 663.35H306.852C307.318 665.95 307.802 668.55 308.302 671.15C308.802 673.75 309.318 676.283 309.852 678.75C310.385 681.183 310.918 683.517 311.452 685.75C311.985 687.983 312.535 690.05 313.102 691.95C314.435 688.45 315.852 684.617 317.352 680.45C318.852 676.25 320.252 671.917 321.552 667.45H325.752C327.052 671.917 328.468 676.25 330.002 680.45C331.535 684.617 332.968 688.45 334.302 691.95C334.835 690.083 335.368 688.033 335.902 685.8C336.435 683.567 336.952 681.233 337.452 678.8C337.985 676.333 338.502 673.8 339.002 671.2C339.502 668.567 339.985 665.95 340.452 663.35H345.402C344.202 670.017 342.918 676.183 341.552 681.85C340.218 687.517 338.685 692.9 336.952 698H332.102C330.635 694.4 329.202 690.7 327.802 686.9C326.402 683.1 325.002 678.967 323.602 674.5ZM351.087 698V663.35H372.237V667.5H355.937V677.8H370.437V681.85H355.937V693.85H373.487V698H351.087ZM403.632 698C403.065 696.5 402.532 695.033 402.032 693.6C401.532 692.133 401.015 690.65 400.482 689.15H384.782L381.632 698H376.582C377.915 694.333 379.165 690.95 380.332 687.85C381.498 684.717 382.632 681.75 383.732 678.95C384.865 676.15 385.982 673.483 387.082 670.95C388.182 668.383 389.332 665.85 390.532 663.35H394.982C396.182 665.85 397.332 668.383 398.432 670.95C399.532 673.483 400.632 676.15 401.732 678.95C402.865 681.75 404.015 684.717 405.182 687.85C406.348 690.95 407.598 694.333 408.932 698H403.632ZM399.082 685.15C398.015 682.25 396.948 679.45 395.882 676.75C394.848 674.017 393.765 671.4 392.632 668.9C391.465 671.4 390.348 674.017 389.282 676.75C388.248 679.45 387.215 682.25 386.182 685.15H399.082ZM433.563 663.35V667.55H422.663V698H417.813V667.55H406.913V663.35H433.563ZM460.485 663.35H465.335V698H460.485V682H443.535V698H438.685V663.35H443.535V677.8H460.485V663.35ZM473.939 698V663.35H495.089V667.5H478.789V677.8H493.289V681.85H478.789V693.85H496.339V698H473.939ZM519.453 683.5C519.986 684.167 520.653 685.05 521.453 686.15C522.286 687.217 523.136 688.417 524.003 689.75C524.87 691.05 525.72 692.417 526.553 693.85C527.42 695.283 528.153 696.667 528.753 698H523.453C522.786 696.733 522.053 695.45 521.253 694.15C520.486 692.85 519.703 691.617 518.903 690.45C518.103 689.25 517.303 688.133 516.503 687.1C515.736 686.067 515.036 685.167 514.403 684.4C513.97 684.433 513.52 684.45 513.053 684.45C512.62 684.45 512.17 684.45 511.703 684.45H507.353V698H502.503V663.85C503.87 663.517 505.386 663.3 507.053 663.2C508.753 663.067 510.303 663 511.703 663C516.57 663 520.27 663.917 522.803 665.75C525.37 667.583 526.653 670.317 526.653 673.95C526.653 676.25 526.036 678.217 524.803 679.85C523.603 681.483 521.82 682.7 519.453 683.5ZM512.103 667.25C510.036 667.25 508.453 667.3 507.353 667.4V680.45H510.803C512.47 680.45 513.97 680.367 515.303 680.2C516.636 680.033 517.753 679.717 518.653 679.25C519.586 678.783 520.303 678.133 520.803 677.3C521.303 676.433 521.553 675.3 521.553 673.9C521.553 672.6 521.303 671.517 520.803 670.65C520.303 669.783 519.62 669.1 518.753 668.6C517.92 668.1 516.92 667.75 515.753 667.55C514.62 667.35 513.403 667.25 512.103 667.25Z" fill="url(#paint29_linear_51_2)"/>
</g>
<defs>
<linearGradient id="paint0_linear_51_2" x1="150.743" y1="-149.579" x2="-98.4519" y2="412.537" gradientUnits="userSpaceOnUse">
<stop offset="0.369792" stop-color="#FAFF00"/>
<stop offset="1" stop-color="#FF9900"/>
</linearGradient>
<linearGradient id="paint1_linear_51_2" x1="222.861" y1="-140.964" x2="297.254" y2="525.406" gradientUnits="userSpaceOnUse">
<stop stop-color="#00A4FF"/>
<stop offset="1" stop-color="#2C0037"/>
</linearGradient>
<linearGradient id="paint2_linear_51_2" x1="494.031" y1="314.244" x2="494.031" y2="348.562" gradientUnits="userSpaceOnUse">
<stop stop-color="#0085FF"/>
<stop offset="1" stop-color="#31155F"/>
</linearGradient>
<linearGradient id="paint3_linear_51_2" x1="389.826" y1="313.733" x2="389.826" y2="348.051" gradientUnits="userSpaceOnUse">
<stop stop-color="#5FC5FF"/>
<stop offset="1" stop-color="white"/>
</linearGradient>
<linearGradient id="paint4_linear_51_2" x1="604.101" y1="314.244" x2="604.101" y2="348.562" gradientUnits="userSpaceOnUse">
<stop stop-color="#0085FF"/>
<stop offset="1" stop-color="#31155F"/>
</linearGradient>
<linearGradient id="paint5_linear_51_2" x1="444.612" y1="314.244" x2="444.612" y2="348.562" gradientUnits="userSpaceOnUse">
<stop stop-color="#0085FF"/>
<stop offset="1" stop-color="#31155F"/>
</linearGradient>
<linearGradient id="paint6_linear_51_2" x1="549.066" y1="314.244" x2="549.066" y2="348.562" gradientUnits="userSpaceOnUse">
<stop stop-color="#0085FF"/>
<stop offset="1" stop-color="#31155F"/>
</linearGradient>
<linearGradient id="paint7_linear_51_2" x1="509.889" y1="97.7979" x2="509.889" y2="297.202" gradientUnits="userSpaceOnUse">
<stop stop-color="#0085FF"/>
<stop offset="1" stop-color="#31155F"/>
</linearGradient>
<linearGradient id="paint8_linear_51_2" x1="511.434" y1="95.0011" x2="511.434" y2="296.635" gradientUnits="userSpaceOnUse">
<stop stop-color="#00A4FF"/>
<stop offset="1" stop-color="white"/>
</linearGradient>
<linearGradient id="paint9_linear_51_2" x1="227.785" y1="271.939" x2="227.785" y2="517.26" gradientUnits="userSpaceOnUse">
<stop stop-color="#00A4FF"/>
<stop offset="1" stop-color="white"/>
</linearGradient>
<linearGradient id="paint10_linear_51_2" x1="67.0079" y1="522.702" x2="67.0079" y2="559.723" gradientUnits="userSpaceOnUse">
<stop offset="0.479167" stop-color="#5FC5FF"/>
<stop offset="1" stop-color="#0066FF"/>
</linearGradient>
<linearGradient id="paint11_linear_51_2" x1="105.854" y1="526.778" x2="105.854" y2="555.364" gradientUnits="userSpaceOnUse">
<stop offset="0.479167" stop-color="#5FC5FF"/>
<stop offset="1" stop-color="#0066FF"/>
</linearGradient>
<linearGradient id="paint12_linear_51_2" x1="144.856" y1="522.702" x2="144.856" y2="559.761" gradientUnits="userSpaceOnUse">
<stop offset="0.479167" stop-color="#5FC5FF"/>
<stop offset="1" stop-color="#0066FF"/>
</linearGradient>
<linearGradient id="paint13_linear_51_2" x1="183.897" y1="526.778" x2="183.897" y2="555.364" gradientUnits="userSpaceOnUse">
<stop offset="0.479167" stop-color="#5FC5FF"/>
<stop offset="1" stop-color="#0066FF"/>
</linearGradient>
<linearGradient id="paint14_linear_51_2" x1="222.743" y1="522.702" x2="222.743" y2="559.723" gradientUnits="userSpaceOnUse">
<stop offset="0.479167" stop-color="#5FC5FF"/>
<stop offset="1" stop-color="#0066FF"/>
</linearGradient>
<linearGradient id="paint15_linear_51_2" x1="69.1018" y1="573.607" x2="69.1018" y2="602.194" gradientUnits="userSpaceOnUse">
<stop offset="0.479167" stop-color="#5FC5FF"/>
<stop offset="1" stop-color="#0066FF"/>
</linearGradient>
<linearGradient id="paint16_linear_51_2" x1="107.967" y1="569.232" x2="107.967" y2="606.253" gradientUnits="userSpaceOnUse">
<stop offset="0.479167" stop-color="#5FC5FF"/>
<stop offset="1" stop-color="#0066FF"/>
</linearGradient>
<linearGradient id="paint17_linear_51_2" x1="146.832" y1="573.607" x2="146.832" y2="602.194" gradientUnits="userSpaceOnUse">
<stop offset="0.479167" stop-color="#5FC5FF"/>
<stop offset="1" stop-color="#0066FF"/>
</linearGradient>
<linearGradient id="paint18_linear_51_2" x1="185.874" y1="569.232" x2="185.874" y2="606.291" gradientUnits="userSpaceOnUse">
<stop offset="0.479167" stop-color="#5FC5FF"/>
<stop offset="1" stop-color="#0066FF"/>
</linearGradient>
<linearGradient id="paint19_linear_51_2" x1="224.876" y1="573.607" x2="224.876" y2="602.194" gradientUnits="userSpaceOnUse">
<stop offset="0.479167" stop-color="#5FC5FF"/>
<stop offset="1" stop-color="#0066FF"/>
</linearGradient>
<linearGradient id="paint20_linear_51_2" x1="260.767" y1="522.134" x2="260.767" y2="550.72" gradientUnits="userSpaceOnUse">
<stop offset="0.479167" stop-color="#5FC5FF"/>
<stop offset="1" stop-color="#0066FF"/>
</linearGradient>
<radialGradient id="paint21_angular_51_2" cx="0" cy="0" r="1" gradientUnits="userSpaceOnUse" gradientTransform="translate(300 537) rotate(113.962) scale(19.6977)">
<stop stop-color="white"/>
<stop offset="0.233811" stop-color="#4EB5FF"/>
<stop offset="0.485223" stop-color="#379DFF"/>
<stop offset="0.55392" stop-color="#288FFF"/>
<stop offset="1" stop-color="#31155F"/>
</radialGradient>
<linearGradient id="paint22_linear_51_2" x1="338.81" y1="522.134" x2="338.81" y2="550.72" gradientUnits="userSpaceOnUse">
<stop offset="0.0520833" stop-color="#0066FF"/>
<stop offset="1" stop-color="#31155F"/>
</linearGradient>
<linearGradient id="paint23_linear_51_2" x1="377.656" y1="518.059" x2="377.656" y2="555.079" gradientUnits="userSpaceOnUse">
<stop stop-color="#0066FF"/>
<stop offset="0.958333" stop-color="#31155F"/>
</linearGradient>
<linearGradient id="paint24_linear_51_2" x1="262.88" y1="564.588" x2="262.88" y2="601.609" gradientUnits="userSpaceOnUse">
<stop offset="0.479167" stop-color="#5FC5FF"/>
<stop offset="1" stop-color="#0066FF"/>
</linearGradient>
<linearGradient id="paint25_linear_51_2" x1="301.746" y1="568.964" x2="301.746" y2="597.55" gradientUnits="userSpaceOnUse">
<stop stop-color="#0066FF"/>
<stop offset="0.958333" stop-color="#31155F"/>
</linearGradient>
<linearGradient id="paint26_linear_51_2" x1="340.787" y1="564.588" x2="340.787" y2="601.647" gradientUnits="userSpaceOnUse">
<stop stop-color="#0066FF"/>
<stop offset="0.958333" stop-color="#31155F"/>
</linearGradient>
<linearGradient id="paint27_linear_51_2" x1="379.789" y1="568.964" x2="379.789" y2="597.55" gradientUnits="userSpaceOnUse">
<stop stop-color="#0066FF"/>
<stop offset="0.958333" stop-color="#31155F"/>
</linearGradient>
<linearGradient id="paint28_linear_51_2" x1="226.981" y1="271.818" x2="226.981" y2="517.496" gradientUnits="userSpaceOnUse">
<stop stop-color="#0066FF"/>
<stop offset="1" stop-color="#31155F"/>
</linearGradient>
<linearGradient id="paint29_linear_51_2" x1="693.5" y1="679" x2="284.481" y2="737.898" gradientUnits="userSpaceOnUse">
<stop stop-color="white"/>
<stop offset="1" stop-color="#D3D3D3"/>
</linearGradient>
<clipPath id="clip0_51_2">
<rect width="830" height="830" fill="white"/>
</clipPath>
</defs>
</svg>
