<svg width="302" height="263" viewBox="0 0 302 263" fill="none" xmlns="http://www.w3.org/2000/svg">
<ellipse cx="173.471" cy="131.5" rx="128.529" ry="131.5" fill="url(#paint0_linear_0_1)"/>
<path d="M204.192 132C203.656 132 203.119 131.789 202.71 131.365C201.892 130.519 201.892 129.147 202.71 128.301L212.81 117.855C213.628 117.009 214.955 117.008 215.772 117.855C216.59 118.701 216.59 120.073 215.772 120.919L205.673 131.365C205.264 131.789 204.728 132 204.192 132Z" fill="url(#paint1_linear_0_1)"/>
<path d="M162.85 132C162.314 132 161.778 131.789 161.368 131.365C160.55 130.519 160.55 129.147 161.368 128.301L171.468 117.855C172.286 117.009 173.613 117.008 174.43 117.855C175.249 118.701 175.249 120.073 174.43 120.919L164.331 131.365C163.922 131.789 163.386 132 162.85 132Z" fill="url(#paint2_linear_0_1)"/>
<path d="M249.714 132C249.178 132 248.642 131.789 248.233 131.365C247.415 130.519 247.415 129.147 248.233 128.301L258.333 117.855C259.151 117.009 260.477 117.008 261.295 117.855C262.113 118.701 262.113 120.073 261.295 120.919L251.195 131.365C250.786 131.789 250.25 132 249.714 132Z" fill="url(#paint3_linear_0_1)"/>
<path d="M183.753 132C183.217 132 182.681 131.789 182.272 131.365C181.454 130.519 181.454 129.147 182.272 128.301L192.371 117.855C193.189 117.009 194.516 117.008 195.334 117.855C196.152 118.701 196.152 120.073 195.334 120.919L185.234 131.365C184.825 131.789 184.289 132 183.753 132Z" fill="url(#paint4_linear_0_1)"/>
<path d="M226.953 132C226.417 132 225.881 131.789 225.472 131.365C224.654 130.519 224.654 129.147 225.472 128.301L235.571 117.855C236.389 117.009 237.716 117.008 238.534 117.855C239.352 118.701 239.352 120.073 238.534 120.919L228.434 131.365C228.025 131.789 227.489 132 226.953 132Z" fill="url(#paint5_linear_0_1)"/>
<path d="M255.448 48.9406C248.592 34.1858 234.006 24 217.121 24C198.729 24 183.067 36.0845 177.149 52.9953C162.588 53.7325 151 66.176 151 81.4201C151 97.1383 163.319 109.88 178.516 109.88H250.973C267.336 109.88 280.6 96.1607 280.6 79.2365C280.6 63.8857 269.687 51.172 255.448 48.9406Z" fill="url(#paint6_linear_0_1)"/>
<path d="M65.4895 245C64.8194 245 64.1493 244.736 63.6379 244.207C62.6153 243.149 62.6153 241.434 63.6379 240.376L76.2625 227.319C77.2851 226.261 78.9431 226.26 79.9654 227.319C80.988 228.376 80.988 230.091 79.9654 231.149L67.3408 244.207C66.8298 244.736 66.1597 245 65.4895 245Z" fill="url(#paint7_linear_0_1)"/>
<path d="M13.8122 245C13.142 245 12.4719 244.736 11.9606 244.207C10.9379 243.149 10.9379 241.434 11.9606 240.376L24.5852 227.319C25.6078 226.261 27.2657 226.26 28.2881 227.319C29.3107 228.376 29.3107 230.091 28.2881 231.149L15.6635 244.207C15.1525 244.736 14.4823 245 13.8122 245Z" fill="url(#paint8_linear_0_1)"/>
<path d="M122.393 245C121.723 245 121.052 244.736 120.541 244.207C119.519 243.149 119.519 241.434 120.541 240.376L133.166 227.319C134.188 226.261 135.846 226.26 136.869 227.319C137.891 228.376 137.891 230.091 136.869 231.149L124.244 244.207C123.733 244.736 123.063 245 122.393 245Z" fill="url(#paint9_linear_0_1)"/>
<path d="M39.9412 245C39.2711 245 38.6009 244.736 38.0896 244.207C37.067 243.149 37.067 241.434 38.0896 240.376L50.7142 227.319C51.7368 226.261 53.3948 226.26 54.4171 227.319C55.4397 228.376 55.4397 230.091 54.4171 231.149L41.7925 244.207C41.2815 244.736 40.6114 245 39.9412 245Z" fill="url(#paint10_linear_0_1)"/>
<path d="M93.9412 245C93.2711 245 92.6009 244.736 92.0896 244.207C91.067 243.149 91.067 241.434 92.0896 240.376L104.714 227.319C105.737 226.261 107.395 226.26 108.417 227.319C109.44 228.376 109.44 230.091 108.417 231.149L95.7925 244.207C95.2815 244.736 94.6114 245 93.9412 245Z" fill="url(#paint11_linear_0_1)"/>
<path d="M162.256 185.044C162.256 187.539 161.979 189.958 161.452 192.276C158.423 205.692 147.14 215.656 133.683 215.656H28.5682C20.6807 215.656 13.5363 212.228 8.36727 206.69C3.19828 201.151 0 193.501 0 185.044C0 168.135 12.7884 154.426 28.5682 154.426H30.6188C31.8088 145.874 35.849 138.314 41.6717 132.891C47.4898 127.468 55.0904 124.187 63.4059 124.187C67.0604 124.187 70.5738 124.832 73.8615 126.002C77.309 121.138 81.7631 117.141 86.8851 114.354C88.2396 113.619 89.6412 112.968 91.0852 112.409C95.0971 110.852 99.4289 110 103.944 110C124.804 110 141.712 128.118 141.712 150.47V155.662C147.648 157.521 152.784 161.387 156.438 166.528C160.088 171.668 162.256 178.084 162.256 185.044Z" fill="url(#paint12_linear_0_1)"/>
<defs>
<linearGradient id="paint0_linear_0_1" x1="92" y1="-5.97621e-07" x2="243" y2="246" gradientUnits="userSpaceOnUse">
<stop stop-color="#00A4FF"/>
<stop offset="1" stop-color="#CB00FE"/>
</linearGradient>
<linearGradient id="paint1_linear_0_1" x1="209.241" y1="117.22" x2="209.241" y2="132" gradientUnits="userSpaceOnUse">
<stop stop-color="#0085FF"/>
<stop offset="1" stop-color="#31155F"/>
</linearGradient>
<linearGradient id="paint2_linear_0_1" x1="167.899" y1="117.22" x2="167.899" y2="132" gradientUnits="userSpaceOnUse">
<stop stop-color="#0085FF"/>
<stop offset="1" stop-color="#31155F"/>
</linearGradient>
<linearGradient id="paint3_linear_0_1" x1="254.764" y1="117.22" x2="254.764" y2="132" gradientUnits="userSpaceOnUse">
<stop stop-color="#0085FF"/>
<stop offset="1" stop-color="#31155F"/>
</linearGradient>
<linearGradient id="paint4_linear_0_1" x1="188.803" y1="117.22" x2="188.803" y2="132" gradientUnits="userSpaceOnUse">
<stop stop-color="#0085FF"/>
<stop offset="1" stop-color="#31155F"/>
</linearGradient>
<linearGradient id="paint5_linear_0_1" x1="232.003" y1="117.22" x2="232.003" y2="132" gradientUnits="userSpaceOnUse">
<stop stop-color="#0085FF"/>
<stop offset="1" stop-color="#31155F"/>
</linearGradient>
<linearGradient id="paint6_linear_0_1" x1="215.8" y1="24" x2="215.8" y2="109.88" gradientUnits="userSpaceOnUse">
<stop stop-color="#0085FF"/>
<stop offset="1" stop-color="#31155F"/>
</linearGradient>
<linearGradient id="paint7_linear_0_1" x1="71.8017" y1="226.525" x2="71.8017" y2="245" gradientUnits="userSpaceOnUse">
<stop stop-color="#0085FF"/>
<stop offset="1" stop-color="#31155F"/>
</linearGradient>
<linearGradient id="paint8_linear_0_1" x1="20.1243" y1="226.525" x2="20.1243" y2="245" gradientUnits="userSpaceOnUse">
<stop stop-color="#0085FF"/>
<stop offset="1" stop-color="#31155F"/>
</linearGradient>
<linearGradient id="paint9_linear_0_1" x1="128.705" y1="226.525" x2="128.705" y2="245" gradientUnits="userSpaceOnUse">
<stop stop-color="#0085FF"/>
<stop offset="1" stop-color="#31155F"/>
</linearGradient>
<linearGradient id="paint10_linear_0_1" x1="46.2533" y1="226.525" x2="46.2533" y2="245" gradientUnits="userSpaceOnUse">
<stop stop-color="#0085FF"/>
<stop offset="1" stop-color="#31155F"/>
</linearGradient>
<linearGradient id="paint11_linear_0_1" x1="100.253" y1="226.525" x2="100.253" y2="245" gradientUnits="userSpaceOnUse">
<stop stop-color="#0085FF"/>
<stop offset="1" stop-color="#31155F"/>
</linearGradient>
<linearGradient id="paint12_linear_0_1" x1="81.1282" y1="110" x2="81.1282" y2="215.656" gradientUnits="userSpaceOnUse">
<stop stop-color="#00A4FF"/>
<stop offset="1" stop-color="#31155F"/>
</linearGradient>
</defs>
</svg>

