<svg width="489" height="489" viewBox="0 0 489 489" fill="none" xmlns="http://www.w3.org/2000/svg">
<path d="M0 203.25C0 315.35 91.2 406.45 203.2 406.45C254.8 406.45 302 387.05 337.9 355.25L467.4 484.75C469.8 487.15 472.9 488.35 476.1 488.35C479.3 488.35 482.4 487.15 484.8 484.75C489.6 479.95 489.6 472.25 484.8 467.45L355.2 337.95C387 302.05 406.4 254.95 406.4 203.25C406.4 91.1501 315.2 0.0500488 203.2 0.0500488C91.2 0.0500488 0 91.1501 0 203.25ZM381.9 203.25C381.9 301.75 301.7 381.95 203.2 381.95C104.7 381.95 24.5 301.75 24.5 203.25C24.5 104.75 104.7 24.5501 203.2 24.5501C301.7 24.5501 381.9 104.65 381.9 203.25Z" fill="url(#paint0_linear_48_260)"/>
<defs>
<linearGradient id="paint0_linear_48_260" x1="86" y1="28.0001" x2="484" y2="490" gradientUnits="userSpaceOnUse">
<stop stop-color="#0066FF"/>
<stop offset="1" stop-color="#CB00FE"/>
</linearGradient>
</defs>
</svg>
