<svg width="303" height="263" viewBox="0 0 303 263" fill="none" xmlns="http://www.w3.org/2000/svg">
<g clip-path="url(#clip0_46_2)">
<ellipse cx="174.471" cy="131.5" rx="128.529" ry="131.5" fill="url(#paint0_linear_46_2)"/>
<path d="M256.448 48.9406C249.592 34.1858 235.006 24 218.121 24C199.729 24 184.067 36.0845 178.149 52.9953C163.588 53.7325 152 66.176 152 81.4201C152 97.1383 164.319 109.88 179.516 109.88H251.973C268.336 109.88 281.6 96.1607 281.6 79.2365C281.6 63.8857 270.687 51.172 256.448 48.9406Z" fill="url(#paint1_linear_46_2)"/>
<path d="M173.291 117.711C173.291 118.295 173.769 118.773 174.353 118.773C174.937 118.773 175.415 118.295 175.415 117.711V115.322L177.146 116.256C177.306 116.341 177.475 116.384 177.645 116.384C178.028 116.384 178.389 116.182 178.58 115.821C178.846 115.311 178.654 114.663 178.145 114.387L176.583 113.548L178.145 112.709C178.665 112.433 178.856 111.785 178.58 111.275C178.304 110.766 177.656 110.564 177.146 110.84L175.415 111.774V109.374C175.415 108.79 174.937 108.312 174.353 108.312C173.769 108.312 173.291 108.79 173.291 109.374V111.774L171.56 110.84C171.04 110.564 170.402 110.755 170.126 111.275C169.85 111.796 170.041 112.433 170.562 112.709L172.123 113.548L170.562 114.387C170.041 114.663 169.85 115.311 170.126 115.821C170.317 116.182 170.689 116.384 171.061 116.384C171.231 116.384 171.401 116.341 171.56 116.256L173.291 115.322V117.711V117.711Z" fill="url(#paint2_linear_46_2)"/>
<path d="M182.733 117.403C182.892 117.499 183.072 117.541 183.242 117.541C183.614 117.541 183.975 117.34 184.177 116.989L187.469 111.042C187.756 110.532 187.565 109.884 187.055 109.597C186.545 109.311 185.897 109.502 185.611 110.011L182.318 115.959C182.032 116.469 182.223 117.117 182.733 117.403Z" fill="url(#paint3_linear_46_2)"/>
<path d="M199.746 111.275C199.47 110.755 198.833 110.564 198.313 110.84L196.539 111.785V109.374C196.539 108.79 196.061 108.312 195.477 108.312C194.893 108.312 194.415 108.79 194.415 109.374V111.785L192.641 110.84C192.121 110.564 191.484 110.766 191.208 111.275C190.931 111.796 191.133 112.433 191.643 112.709L193.215 113.548L191.643 114.387C191.123 114.663 190.931 115.3 191.208 115.821C191.399 116.182 191.77 116.384 192.142 116.384C192.312 116.384 192.482 116.341 192.641 116.256L194.415 115.311V117.722C194.415 118.306 194.893 118.784 195.477 118.784C196.061 118.784 196.539 118.306 196.539 117.722V115.311L198.313 116.256C198.472 116.341 198.642 116.384 198.812 116.384C199.194 116.384 199.555 116.182 199.746 115.821C200.023 115.3 199.831 114.663 199.311 114.387L197.739 113.548L199.311 112.709C199.831 112.433 200.023 111.796 199.746 111.275Z" fill="url(#paint4_linear_46_2)"/>
<path d="M203.91 117.403C204.069 117.499 204.249 117.541 204.419 117.541C204.791 117.541 205.152 117.34 205.354 116.989L208.646 111.042C208.933 110.532 208.742 109.884 208.232 109.597C207.722 109.311 207.074 109.502 206.788 110.011L203.495 115.959C203.209 116.469 203.4 117.117 203.91 117.403Z" fill="url(#paint5_linear_46_2)"/>
<path d="M220.403 114.387L218.842 113.548L220.403 112.709C220.923 112.433 221.115 111.785 220.838 111.275C220.562 110.766 219.914 110.564 219.405 110.84L217.674 111.774V109.374C217.674 108.79 217.196 108.312 216.612 108.312C216.027 108.312 215.549 108.79 215.549 109.374V111.774L213.818 110.84C213.298 110.564 212.661 110.755 212.385 111.275C212.108 111.796 212.3 112.433 212.82 112.709L214.381 113.548L212.82 114.387C212.3 114.663 212.108 115.311 212.385 115.821C212.576 116.182 212.947 116.384 213.319 116.384C213.489 116.384 213.659 116.341 213.818 116.256L215.549 115.322V117.711C215.549 118.295 216.027 118.773 216.612 118.773C217.196 118.773 217.674 118.295 217.674 117.711V115.322L219.405 116.256C219.564 116.341 219.734 116.384 219.904 116.384C220.286 116.384 220.647 116.182 220.838 115.821C221.115 115.311 220.923 114.663 220.403 114.387Z" fill="url(#paint6_linear_46_2)"/>
<path d="M172.76 130.636C172.919 130.732 173.1 130.774 173.27 130.774C173.652 130.774 174.013 130.583 174.204 130.222L177.497 124.275C177.783 123.765 177.592 123.117 177.083 122.83C176.573 122.544 175.925 122.735 175.638 123.244L172.346 129.192C172.059 129.702 172.25 130.349 172.76 130.636Z" fill="url(#paint7_linear_46_2)"/>
<path d="M184.4 128.47V130.859C184.4 131.443 184.878 131.921 185.462 131.921C186.046 131.921 186.524 131.443 186.524 130.859V128.47L188.255 129.404C188.414 129.489 188.584 129.532 188.754 129.532C189.137 129.532 189.498 129.33 189.689 128.969C189.976 128.459 189.774 127.811 189.264 127.535L187.703 126.696L189.264 125.857C189.784 125.581 189.976 124.933 189.7 124.423C189.423 123.903 188.776 123.712 188.266 123.988L186.535 124.922V122.522C186.535 121.938 186.057 121.46 185.473 121.46C184.888 121.46 184.411 121.938 184.411 122.522V124.912L182.679 123.977C182.159 123.701 181.522 123.892 181.246 124.413C180.97 124.933 181.161 125.57 181.681 125.846L183.242 126.685L181.671 127.535C181.15 127.811 180.959 128.459 181.235 128.969C181.426 129.33 181.798 129.532 182.17 129.532C182.34 129.532 182.51 129.489 182.669 129.404L184.4 128.47Z" fill="url(#paint8_linear_46_2)"/>
<path d="M194.362 130.774C194.734 130.774 195.105 130.583 195.296 130.222L198.589 124.275C198.875 123.765 198.684 123.117 198.175 122.83C197.665 122.544 197.017 122.735 196.73 123.244L193.438 129.192C193.151 129.702 193.342 130.349 193.852 130.636C194.011 130.732 194.192 130.774 194.362 130.774Z" fill="url(#paint9_linear_46_2)"/>
<path d="M210.877 128.969C211.153 128.448 210.951 127.811 210.441 127.535L208.869 126.696L210.441 125.857C210.961 125.581 211.153 124.944 210.877 124.423C210.6 123.903 209.963 123.712 209.443 123.988L207.669 124.933V122.522C207.669 121.938 207.191 121.46 206.607 121.46C206.023 121.46 205.545 121.938 205.545 122.522V124.933L203.771 123.988C203.251 123.712 202.614 123.914 202.338 124.423C202.062 124.944 202.263 125.581 202.773 125.857L204.345 126.696L202.773 127.535C202.253 127.811 202.062 128.448 202.338 128.969C202.529 129.33 202.901 129.532 203.272 129.532C203.442 129.532 203.612 129.489 203.771 129.404L205.545 128.459V130.87C205.545 131.454 206.023 131.932 206.607 131.932C207.191 131.932 207.669 131.454 207.669 130.87V128.459L209.443 129.404C209.602 129.489 209.772 129.532 209.942 129.532C210.324 129.532 210.685 129.33 210.877 128.969Z" fill="url(#paint10_linear_46_2)"/>
<path d="M219.352 122.83C218.842 122.544 218.194 122.735 217.907 123.244L214.615 129.192C214.328 129.702 214.519 130.349 215.029 130.636C215.188 130.732 215.369 130.774 215.539 130.774C215.921 130.774 216.282 130.583 216.473 130.222L219.766 124.275C220.052 123.765 219.861 123.117 219.352 122.83Z" fill="url(#paint11_linear_46_2)"/>
<path d="M224.768 116.091C224.927 116.187 225.108 116.229 225.278 116.229C225.649 116.229 226.011 116.027 226.212 115.677L229.505 109.729C229.791 109.22 229.6 108.572 229.09 108.285C228.581 107.998 227.933 108.189 227.646 108.699L224.354 114.647C224.067 115.156 224.258 115.804 224.768 116.091Z" fill="url(#paint12_linear_46_2)"/>
<path d="M241.782 109.963C241.506 109.443 240.868 109.252 240.348 109.528L238.574 110.473V108.062C238.574 107.478 238.096 107 237.512 107C236.928 107 236.45 107.478 236.45 108.062V110.473L234.677 109.528C234.156 109.252 233.519 109.453 233.243 109.963C232.967 110.483 233.169 111.121 233.678 111.397L235.25 112.236L233.678 113.075C233.158 113.351 232.967 113.988 233.243 114.509C233.434 114.87 233.806 115.071 234.178 115.071C234.348 115.071 234.517 115.029 234.677 114.944L236.45 113.999V116.41C236.45 116.994 236.928 117.472 237.512 117.472C238.096 117.472 238.574 116.994 238.574 116.41V113.999L240.348 114.944C240.507 115.029 240.677 115.071 240.847 115.071C241.229 115.071 241.591 114.87 241.782 114.509C242.058 113.988 241.867 113.351 241.346 113.075L239.775 112.236L241.346 111.397C241.867 111.121 242.058 110.483 241.782 109.963Z" fill="url(#paint13_linear_46_2)"/>
<path d="M245.945 116.091C246.104 116.187 246.285 116.229 246.455 116.229C246.826 116.229 247.188 116.027 247.389 115.677L250.682 109.729C250.968 109.22 250.777 108.572 250.267 108.285C249.758 107.998 249.11 108.189 248.823 108.699L245.531 114.647C245.244 115.156 245.435 115.804 245.945 116.091Z" fill="url(#paint14_linear_46_2)"/>
<path d="M262.438 113.075L260.877 112.236L262.438 111.397C262.959 111.121 263.15 110.473 262.874 109.963C262.598 109.453 261.95 109.252 261.44 109.528L259.709 110.462V108.062C259.709 107.478 259.231 107 258.647 107C258.063 107 257.585 107.478 257.585 108.062V110.462L255.854 109.528C255.333 109.252 254.696 109.443 254.42 109.963C254.144 110.483 254.335 111.121 254.855 111.397L256.417 112.236L254.855 113.075C254.335 113.351 254.144 113.999 254.42 114.509C254.611 114.87 254.983 115.071 255.355 115.071C255.525 115.071 255.694 115.029 255.854 114.944L257.585 114.009V116.399C257.585 116.983 258.063 117.461 258.647 117.461C259.231 117.461 259.709 116.983 259.709 116.399V114.009L261.44 114.944C261.599 115.029 261.769 115.071 261.939 115.071C262.322 115.071 262.683 114.87 262.874 114.509C263.15 113.999 262.959 113.351 262.438 113.075Z" fill="url(#paint15_linear_46_2)"/>
<path d="M226.435 127.157V129.547C226.435 130.131 226.913 130.609 227.497 130.609C228.082 130.609 228.559 130.131 228.559 129.547V127.157L230.291 128.092C230.45 128.177 230.62 128.22 230.79 128.22C231.172 128.22 231.533 128.018 231.724 127.657C232.011 127.147 231.809 126.499 231.3 126.223L229.738 125.384L231.3 124.545C231.82 124.269 232.011 123.621 231.735 123.111C231.459 122.591 230.811 122.4 230.301 122.676L228.57 123.61V121.21C228.57 120.626 228.092 120.148 227.508 120.148C226.924 120.148 226.446 120.626 226.446 121.21V123.6L224.715 122.665C224.194 122.389 223.557 122.58 223.281 123.1C223.005 123.621 223.196 124.258 223.717 124.534L225.278 125.373L223.706 126.223C223.186 126.499 222.994 127.147 223.271 127.657C223.462 128.018 223.833 128.22 224.205 128.22C224.375 128.22 224.545 128.177 224.704 128.092L226.435 127.157Z" fill="url(#paint16_linear_46_2)"/>
<path d="M236.397 129.462C236.769 129.462 237.141 129.271 237.332 128.91L240.624 122.962C240.911 122.453 240.72 121.805 240.21 121.518C239.7 121.231 239.052 121.422 238.766 121.932L235.473 127.88C235.187 128.389 235.378 129.037 235.887 129.324C236.047 129.42 236.227 129.462 236.397 129.462Z" fill="url(#paint17_linear_46_2)"/>
<path d="M252.912 127.657C253.188 127.136 252.986 126.499 252.476 126.223L250.905 125.384L252.476 124.545C252.997 124.269 253.188 123.632 252.912 123.111C252.636 122.591 251.999 122.4 251.478 122.676L249.705 123.621V121.21C249.705 120.626 249.227 120.148 248.643 120.148C248.058 120.148 247.58 120.626 247.58 121.21V123.621L245.807 122.676C245.286 122.4 244.649 122.601 244.373 123.111C244.097 123.632 244.299 124.269 244.809 124.545L246.38 125.384L244.809 126.223C244.288 126.499 244.097 127.136 244.373 127.657C244.564 128.018 244.936 128.22 245.308 128.22C245.478 128.22 245.648 128.177 245.807 128.092L247.58 127.147V129.558C247.58 130.142 248.058 130.62 248.643 130.62C249.227 130.62 249.705 130.142 249.705 129.558V127.147L251.478 128.092C251.637 128.177 251.807 128.22 251.977 128.22C252.36 128.22 252.721 128.018 252.912 127.657Z" fill="url(#paint18_linear_46_2)"/>
<path d="M261.387 121.518C260.877 121.231 260.229 121.422 259.943 121.932L256.65 127.88C256.364 128.389 256.555 129.037 257.064 129.324C257.224 129.42 257.404 129.462 257.574 129.462C257.957 129.462 258.318 129.271 258.509 128.91L261.801 122.962C262.088 122.453 261.897 121.805 261.387 121.518Z" fill="url(#paint19_linear_46_2)"/>
<path d="M163.256 185.044C163.256 187.539 162.979 189.958 162.452 192.276C159.423 205.692 148.14 215.656 134.683 215.656H29.5682C21.6807 215.656 14.5363 212.228 9.36727 206.69C4.19828 201.151 1 193.501 1 185.044C1 168.135 13.7884 154.426 29.5682 154.426H31.6188C32.8088 145.874 36.849 138.314 42.6717 132.891C48.4898 127.468 56.0904 124.187 64.4059 124.187C68.0604 124.187 71.5738 124.832 74.8615 126.002C78.309 121.138 82.7631 117.141 87.8851 114.354C89.2396 113.619 90.6412 112.968 92.0852 112.409C96.0971 110.852 100.429 110 104.944 110C125.804 110 142.712 128.118 142.712 150.47V155.662C148.648 157.521 153.784 161.387 157.438 166.528C161.088 171.668 163.256 178.084 163.256 185.044Z" fill="url(#paint20_linear_46_2)"/>
<path d="M14.0161 232.326C14.0161 233.216 14.7445 233.944 15.6348 233.944C16.5251 233.944 17.2535 233.216 17.2535 232.326V228.683L19.892 230.108C20.1348 230.237 20.3938 230.302 20.6528 230.302C21.2355 230.302 21.7859 229.995 22.0772 229.444C22.4819 228.667 22.1905 227.68 21.4136 227.259L19.0341 225.98L21.4136 224.701C22.2067 224.281 22.4981 223.293 22.0772 222.516C21.6564 221.739 20.669 221.432 19.892 221.853L17.2535 223.277V219.619C17.2535 218.728 16.5251 218 15.6348 218C14.7445 218 14.0161 218.728 14.0161 219.619V223.277L11.3776 221.853C10.5844 221.432 9.6132 221.723 9.19234 222.516C8.77147 223.309 9.06284 224.281 9.85601 224.701L12.2355 225.98L9.85601 227.259C9.06284 227.68 8.77147 228.667 9.19234 229.444C9.4837 229.995 10.0502 230.302 10.6168 230.302C10.8758 230.302 11.1348 230.237 11.3776 230.108L14.0161 228.683V232.326V232.326Z" fill="url(#paint21_linear_46_2)"/>
<path d="M28.4064 231.856C28.6492 232.002 28.9243 232.067 29.1833 232.067C29.7499 232.067 30.3002 231.759 30.6078 231.225L35.6258 222.16C36.0628 221.383 35.7715 220.396 34.9945 219.959C34.2175 219.522 33.2301 219.813 32.7931 220.59L27.7751 229.655C27.338 230.432 27.6294 231.419 28.4064 231.856Z" fill="url(#paint22_linear_46_2)"/>
<path d="M54.338 222.516C53.9171 221.723 52.9459 221.432 52.1528 221.853L49.4495 223.293V219.619C49.4495 218.728 48.7211 218 47.8308 218C46.9405 218 46.2121 218.728 46.2121 219.619V223.293L43.5089 221.853C42.7157 221.432 41.7445 221.739 41.3236 222.516C40.9028 223.309 41.2103 224.281 41.9873 224.701L44.383 225.98L41.9873 227.259C41.1941 227.68 40.9028 228.651 41.3236 229.444C41.615 229.995 42.1815 230.302 42.7481 230.302C43.0071 230.302 43.2661 230.237 43.5089 230.108L46.2121 228.667V232.342C46.2121 233.232 46.9405 233.96 47.8308 233.96C48.7211 233.96 49.4495 233.232 49.4495 232.342V228.667L52.1528 230.108C52.3956 230.237 52.6546 230.302 52.9135 230.302C53.4963 230.302 54.0466 229.995 54.338 229.444C54.7589 228.651 54.4675 227.68 53.6743 227.259L51.2787 225.98L53.6743 224.701C54.4675 224.281 54.7589 223.309 54.338 222.516Z" fill="url(#paint23_linear_46_2)"/>
<path d="M60.6833 231.856C60.9261 232.002 61.2013 232.067 61.4603 232.067C62.0269 232.067 62.5772 231.759 62.8848 231.225L67.9028 222.16C68.3398 221.383 68.0484 220.396 67.2715 219.959C66.4945 219.522 65.5071 219.813 65.07 220.59L60.052 229.655C59.615 230.432 59.9064 231.419 60.6833 231.856Z" fill="url(#paint24_linear_46_2)"/>
<path d="M85.8218 227.259L83.4423 225.98L85.8218 224.701C86.615 224.281 86.9064 223.293 86.4855 222.516C86.0646 221.739 85.0772 221.432 84.3002 221.853L81.6617 223.277V219.619C81.6617 218.728 80.9333 218 80.043 218C79.1528 218 78.4243 218.728 78.4243 219.619V223.277L75.7859 221.853C74.9927 221.432 74.0215 221.723 73.6006 222.516C73.1797 223.309 73.4711 224.281 74.2643 224.701L76.6438 225.98L74.2643 227.259C73.4711 227.68 73.1797 228.667 73.6006 229.444C73.892 229.995 74.4585 230.302 75.0251 230.302C75.2841 230.302 75.543 230.237 75.7859 230.108L78.4243 228.683V232.326C78.4243 233.216 79.1528 233.944 80.043 233.944C80.9333 233.944 81.6617 233.216 81.6617 232.326V228.683L84.3002 230.108C84.543 230.237 84.802 230.302 85.061 230.302C85.6438 230.302 86.1941 229.995 86.4855 229.444C86.9064 228.667 86.615 227.68 85.8218 227.259Z" fill="url(#paint25_linear_46_2)"/>
<path d="M13.2067 252.025C13.4495 252.171 13.7247 252.236 13.9837 252.236C14.5664 252.236 15.1168 251.944 15.4082 251.394L20.4261 242.329C20.8632 241.552 20.5718 240.565 19.7948 240.128C19.0179 239.691 18.0305 239.982 17.5934 240.759L12.5754 249.824C12.1384 250.601 12.4297 251.588 13.2067 252.025Z" fill="url(#paint26_linear_46_2)"/>
<path d="M30.9477 248.723V252.365C30.9477 253.255 31.6761 253.984 32.5664 253.984C33.4567 253.984 34.1851 253.255 34.1851 252.365V248.723L36.8236 250.147C37.0664 250.277 37.3254 250.342 37.5844 250.342C38.1671 250.342 38.7175 250.034 39.0089 249.484C39.4459 248.707 39.1384 247.719 38.3614 247.299L35.9819 246.02L38.3614 244.741C39.1546 244.32 39.4459 243.333 39.0251 242.556C38.6042 241.763 37.6168 241.471 36.8398 241.892L34.2013 243.317V239.658C34.2013 238.768 33.4729 238.04 32.5826 238.04C31.6923 238.04 30.9639 238.768 30.9639 239.658V243.3L28.3254 241.876C27.5322 241.455 26.561 241.746 26.1402 242.54C25.7193 243.333 26.0107 244.304 26.8038 244.725L29.1833 246.004L26.7876 247.299C25.9945 247.719 25.7031 248.707 26.124 249.484C26.4153 250.034 26.9819 250.342 27.5484 250.342C27.8074 250.342 28.0664 250.277 28.3092 250.147L30.9477 248.723Z" fill="url(#paint27_linear_46_2)"/>
<path d="M46.1312 252.236C46.6977 252.236 47.2643 251.944 47.5556 251.394L52.5736 242.329C53.0107 241.552 52.7193 240.565 51.9423 240.128C51.1654 239.691 50.1779 239.982 49.7409 240.759L44.7229 249.824C44.2859 250.601 44.5772 251.588 45.3542 252.025C45.597 252.171 45.8722 252.236 46.1312 252.236Z" fill="url(#paint28_linear_46_2)"/>
<path d="M71.3021 249.484C71.7229 248.691 71.4154 247.719 70.6384 247.299L68.2427 246.02L70.6384 244.741C71.4316 244.32 71.7229 243.349 71.3021 242.556C70.8812 241.763 69.91 241.471 69.1168 241.892L66.4136 243.333V239.658C66.4136 238.768 65.6852 238.04 64.7949 238.04C63.9046 238.04 63.1762 238.768 63.1762 239.658V243.333L60.4729 241.892C59.6798 241.471 58.7085 241.779 58.2877 242.556C57.8668 243.349 58.1744 244.32 58.9513 244.741L61.347 246.02L58.9513 247.299C58.1582 247.719 57.8668 248.691 58.2877 249.484C58.579 250.034 59.1456 250.342 59.7121 250.342C59.9711 250.342 60.2301 250.277 60.4729 250.147L63.1762 248.707V252.381C63.1762 253.272 63.9046 254 64.7949 254C65.6852 254 66.4136 253.272 66.4136 252.381V248.707L69.1168 250.147C69.3596 250.277 69.6186 250.342 69.8776 250.342C70.4603 250.342 71.0107 250.034 71.3021 249.484Z" fill="url(#paint29_linear_46_2)"/>
<path d="M84.2193 240.128C83.4423 239.691 82.4549 239.982 82.0179 240.759L76.9999 249.824C76.5628 250.601 76.8542 251.588 77.6312 252.025C77.874 252.171 78.1492 252.236 78.4082 252.236C78.9909 252.236 79.5413 251.944 79.8326 251.394L84.8506 242.329C85.2877 241.552 84.9963 240.565 84.2193 240.128Z" fill="url(#paint30_linear_46_2)"/>
<path d="M92.4747 229.856C92.7175 230.002 92.9927 230.067 93.2517 230.067C93.8182 230.067 94.3686 229.759 94.6762 229.225L99.6941 220.16C100.131 219.383 99.8398 218.396 99.0628 217.959C98.2859 217.522 97.2985 217.813 96.8614 218.59L91.8434 227.655C91.4064 228.432 91.6977 229.419 92.4747 229.856Z" fill="url(#paint31_linear_46_2)"/>
<path d="M118.406 220.516C117.986 219.723 117.014 219.432 116.221 219.853L113.518 221.293V217.619C113.518 216.728 112.789 216 111.899 216C111.009 216 110.28 216.728 110.28 217.619V221.293L107.577 219.853C106.784 219.432 105.813 219.739 105.392 220.516C104.971 221.309 105.279 222.281 106.056 222.701L108.451 223.98L106.056 225.259C105.262 225.68 104.971 226.651 105.392 227.444C105.683 227.995 106.25 228.302 106.816 228.302C107.075 228.302 107.334 228.237 107.577 228.108L110.28 226.667V230.342C110.28 231.232 111.009 231.96 111.899 231.96C112.789 231.96 113.518 231.232 113.518 230.342V226.667L116.221 228.108C116.464 228.237 116.723 228.302 116.982 228.302C117.565 228.302 118.115 227.995 118.406 227.444C118.827 226.651 118.536 225.68 117.743 225.259L115.347 223.98L117.743 222.701C118.536 222.281 118.827 221.309 118.406 220.516Z" fill="url(#paint32_linear_46_2)"/>
<path d="M124.752 229.856C124.994 230.002 125.27 230.067 125.529 230.067C126.095 230.067 126.646 229.759 126.953 229.225L131.971 220.16C132.408 219.383 132.117 218.396 131.34 217.959C130.563 217.522 129.575 217.813 129.138 218.59L124.12 227.655C123.683 228.432 123.975 229.419 124.752 229.856Z" fill="url(#paint33_linear_46_2)"/>
<path d="M149.89 225.259L147.511 223.98L149.89 222.701C150.683 222.281 150.975 221.293 150.554 220.516C150.133 219.739 149.146 219.432 148.369 219.853L145.73 221.277V217.619C145.73 216.728 145.002 216 144.111 216C143.221 216 142.493 216.728 142.493 217.619V221.277L139.854 219.853C139.061 219.432 138.09 219.723 137.669 220.516C137.248 221.309 137.539 222.281 138.333 222.701L140.712 223.98L138.333 225.259C137.539 225.68 137.248 226.667 137.669 227.444C137.96 227.995 138.527 228.302 139.093 228.302C139.352 228.302 139.611 228.237 139.854 228.108L142.493 226.683V230.326C142.493 231.216 143.221 231.944 144.111 231.944C145.002 231.944 145.73 231.216 145.73 230.326V226.683L148.369 228.108C148.611 228.237 148.87 228.302 149.129 228.302C149.712 228.302 150.262 227.995 150.554 227.444C150.975 226.667 150.683 225.68 149.89 225.259Z" fill="url(#paint34_linear_46_2)"/>
<path d="M95.0161 246.723V250.365C95.0161 251.255 95.7445 251.984 96.6348 251.984C97.5251 251.984 98.2535 251.255 98.2535 250.365V246.723L100.892 248.147C101.135 248.277 101.394 248.342 101.653 248.342C102.235 248.342 102.786 248.034 103.077 247.484C103.514 246.707 103.207 245.719 102.43 245.299L100.05 244.02L102.43 242.741C103.223 242.32 103.514 241.333 103.093 240.556C102.673 239.763 101.685 239.471 100.908 239.892L98.2697 241.317V237.658C98.2697 236.768 97.5413 236.04 96.651 236.04C95.7607 236.04 95.0323 236.768 95.0323 237.658V241.3L92.3938 239.876C91.6006 239.455 90.6294 239.746 90.2085 240.54C89.7877 241.333 90.079 242.304 90.8722 242.725L93.2517 244.004L90.856 245.299C90.0628 245.719 89.7715 246.707 90.1923 247.484C90.4837 248.034 91.0502 248.342 91.6168 248.342C91.8758 248.342 92.1348 248.277 92.3776 248.147L95.0161 246.723Z" fill="url(#paint35_linear_46_2)"/>
<path d="M110.2 250.236C110.766 250.236 111.333 249.944 111.624 249.394L116.642 240.329C117.079 239.552 116.788 238.565 116.011 238.128C115.234 237.691 114.246 237.982 113.809 238.759L108.791 247.824C108.354 248.601 108.646 249.588 109.423 250.025C109.665 250.171 109.941 250.236 110.2 250.236Z" fill="url(#paint36_linear_46_2)"/>
<path d="M135.37 247.484C135.791 246.691 135.484 245.719 134.707 245.299L132.311 244.02L134.707 242.741C135.5 242.32 135.791 241.349 135.37 240.556C134.95 239.763 133.978 239.471 133.185 239.892L130.482 241.333V237.658C130.482 236.768 129.753 236.04 128.863 236.04C127.973 236.04 127.244 236.768 127.244 237.658V241.333L124.541 239.892C123.748 239.471 122.777 239.779 122.356 240.556C121.935 241.349 122.243 242.32 123.02 242.741L125.415 244.02L123.02 245.299C122.227 245.719 121.935 246.691 122.356 247.484C122.647 248.034 123.214 248.342 123.78 248.342C124.039 248.342 124.298 248.277 124.541 248.147L127.244 246.707V250.381C127.244 251.272 127.973 252 128.863 252C129.753 252 130.482 251.272 130.482 250.381V246.707L133.185 248.147C133.428 248.277 133.687 248.342 133.946 248.342C134.529 248.342 135.079 248.034 135.37 247.484Z" fill="url(#paint37_linear_46_2)"/>
<path d="M148.288 238.128C147.511 237.691 146.523 237.982 146.086 238.759L141.068 247.824C140.631 248.601 140.923 249.588 141.7 250.025C141.942 250.171 142.217 250.236 142.476 250.236C143.059 250.236 143.61 249.944 143.901 249.394L148.919 240.329C149.356 239.552 149.065 238.565 148.288 238.128Z" fill="url(#paint38_linear_46_2)"/>
</g>
<defs>
<linearGradient id="paint0_linear_46_2" x1="174.471" y1="0" x2="174.471" y2="263" gradientUnits="userSpaceOnUse">
<stop offset="0.369792" stop-color="#FAFF00"/>
<stop offset="1" stop-color="#FF9900"/>
</linearGradient>
<linearGradient id="paint1_linear_46_2" x1="216.8" y1="24" x2="216.8" y2="109.88" gradientUnits="userSpaceOnUse">
<stop stop-color="#00A4FF"/>
<stop offset="1" stop-color="white"/>
</linearGradient>
<linearGradient id="paint2_linear_46_2" x1="174.353" y1="108.312" x2="174.353" y2="118.773" gradientUnits="userSpaceOnUse">
<stop offset="0.479167" stop-color="#5FC5FF"/>
<stop offset="1" stop-color="#0066FF"/>
</linearGradient>
<linearGradient id="paint3_linear_46_2" x1="184.894" y1="109.464" x2="184.894" y2="117.541" gradientUnits="userSpaceOnUse">
<stop offset="0.479167" stop-color="#5FC5FF"/>
<stop offset="1" stop-color="#0066FF"/>
</linearGradient>
<linearGradient id="paint4_linear_46_2" x1="195.477" y1="108.312" x2="195.477" y2="118.784" gradientUnits="userSpaceOnUse">
<stop offset="0.479167" stop-color="#5FC5FF"/>
<stop offset="1" stop-color="#0066FF"/>
</linearGradient>
<linearGradient id="paint5_linear_46_2" x1="206.071" y1="109.464" x2="206.071" y2="117.541" gradientUnits="userSpaceOnUse">
<stop offset="0.479167" stop-color="#5FC5FF"/>
<stop offset="1" stop-color="#0066FF"/>
</linearGradient>
<linearGradient id="paint6_linear_46_2" x1="216.612" y1="108.312" x2="216.612" y2="118.773" gradientUnits="userSpaceOnUse">
<stop offset="0.479167" stop-color="#5FC5FF"/>
<stop offset="1" stop-color="#0066FF"/>
</linearGradient>
<linearGradient id="paint7_linear_46_2" x1="174.921" y1="122.697" x2="174.921" y2="130.774" gradientUnits="userSpaceOnUse">
<stop offset="0.479167" stop-color="#5FC5FF"/>
<stop offset="1" stop-color="#0066FF"/>
</linearGradient>
<linearGradient id="paint8_linear_46_2" x1="185.467" y1="121.46" x2="185.467" y2="131.921" gradientUnits="userSpaceOnUse">
<stop offset="0.479167" stop-color="#5FC5FF"/>
<stop offset="1" stop-color="#0066FF"/>
</linearGradient>
<linearGradient id="paint9_linear_46_2" x1="196.013" y1="122.697" x2="196.013" y2="130.774" gradientUnits="userSpaceOnUse">
<stop offset="0.479167" stop-color="#5FC5FF"/>
<stop offset="1" stop-color="#0066FF"/>
</linearGradient>
<linearGradient id="paint10_linear_46_2" x1="206.607" y1="121.46" x2="206.607" y2="131.932" gradientUnits="userSpaceOnUse">
<stop offset="0.479167" stop-color="#5FC5FF"/>
<stop offset="1" stop-color="#0066FF"/>
</linearGradient>
<linearGradient id="paint11_linear_46_2" x1="217.19" y1="122.697" x2="217.19" y2="130.774" gradientUnits="userSpaceOnUse">
<stop offset="0.479167" stop-color="#5FC5FF"/>
<stop offset="1" stop-color="#0066FF"/>
</linearGradient>
<linearGradient id="paint12_linear_46_2" x1="226.929" y1="108.151" x2="226.929" y2="116.229" gradientUnits="userSpaceOnUse">
<stop offset="0.479167" stop-color="#5FC5FF"/>
<stop offset="1" stop-color="#0066FF"/>
</linearGradient>
<linearGradient id="paint13_linear_46_2" x1="237.512" y1="107" x2="237.512" y2="117.472" gradientUnits="userSpaceOnUse">
<stop offset="0.479167" stop-color="#5FC5FF"/>
<stop offset="1" stop-color="#0066FF"/>
</linearGradient>
<linearGradient id="paint14_linear_46_2" x1="248.106" y1="108.151" x2="248.106" y2="116.229" gradientUnits="userSpaceOnUse">
<stop offset="0.479167" stop-color="#5FC5FF"/>
<stop offset="1" stop-color="#0066FF"/>
</linearGradient>
<linearGradient id="paint15_linear_46_2" x1="258.647" y1="107" x2="258.647" y2="117.461" gradientUnits="userSpaceOnUse">
<stop offset="0.479167" stop-color="#5FC5FF"/>
<stop offset="1" stop-color="#0066FF"/>
</linearGradient>
<linearGradient id="paint16_linear_46_2" x1="227.503" y1="120.148" x2="227.503" y2="130.609" gradientUnits="userSpaceOnUse">
<stop offset="0.479167" stop-color="#5FC5FF"/>
<stop offset="1" stop-color="#0066FF"/>
</linearGradient>
<linearGradient id="paint17_linear_46_2" x1="238.049" y1="121.384" x2="238.049" y2="129.462" gradientUnits="userSpaceOnUse">
<stop offset="0.479167" stop-color="#5FC5FF"/>
<stop offset="1" stop-color="#0066FF"/>
</linearGradient>
<linearGradient id="paint18_linear_46_2" x1="248.643" y1="120.148" x2="248.643" y2="130.62" gradientUnits="userSpaceOnUse">
<stop offset="0.479167" stop-color="#5FC5FF"/>
<stop offset="1" stop-color="#0066FF"/>
</linearGradient>
<linearGradient id="paint19_linear_46_2" x1="259.226" y1="121.384" x2="259.226" y2="129.462" gradientUnits="userSpaceOnUse">
<stop offset="0.479167" stop-color="#5FC5FF"/>
<stop offset="1" stop-color="#0066FF"/>
</linearGradient>
<linearGradient id="paint20_linear_46_2" x1="82.1282" y1="110" x2="82.1282" y2="215.656" gradientUnits="userSpaceOnUse">
<stop stop-color="#00A4FF"/>
<stop offset="1" stop-color="white"/>
</linearGradient>
<linearGradient id="paint21_linear_46_2" x1="15.6348" y1="218" x2="15.6348" y2="233.944" gradientUnits="userSpaceOnUse">
<stop offset="0.479167" stop-color="#5FC5FF"/>
<stop offset="1" stop-color="#0066FF"/>
</linearGradient>
<linearGradient id="paint22_linear_46_2" x1="31.7004" y1="219.755" x2="31.7004" y2="232.067" gradientUnits="userSpaceOnUse">
<stop offset="0.479167" stop-color="#5FC5FF"/>
<stop offset="1" stop-color="#0066FF"/>
</linearGradient>
<linearGradient id="paint23_linear_46_2" x1="47.8308" y1="218" x2="47.8308" y2="233.96" gradientUnits="userSpaceOnUse">
<stop offset="0.479167" stop-color="#5FC5FF"/>
<stop offset="1" stop-color="#0066FF"/>
</linearGradient>
<linearGradient id="paint24_linear_46_2" x1="63.9774" y1="219.755" x2="63.9774" y2="232.067" gradientUnits="userSpaceOnUse">
<stop offset="0.479167" stop-color="#5FC5FF"/>
<stop offset="1" stop-color="#0066FF"/>
</linearGradient>
<linearGradient id="paint25_linear_46_2" x1="80.043" y1="218" x2="80.043" y2="233.944" gradientUnits="userSpaceOnUse">
<stop offset="0.479167" stop-color="#5FC5FF"/>
<stop offset="1" stop-color="#0066FF"/>
</linearGradient>
<linearGradient id="paint26_linear_46_2" x1="16.5008" y1="239.924" x2="16.5008" y2="252.236" gradientUnits="userSpaceOnUse">
<stop offset="0.479167" stop-color="#5FC5FF"/>
<stop offset="1" stop-color="#0066FF"/>
</linearGradient>
<linearGradient id="paint27_linear_46_2" x1="32.5745" y1="238.04" x2="32.5745" y2="253.984" gradientUnits="userSpaceOnUse">
<stop offset="0.479167" stop-color="#5FC5FF"/>
<stop offset="1" stop-color="#0066FF"/>
</linearGradient>
<linearGradient id="paint28_linear_46_2" x1="48.6483" y1="239.924" x2="48.6483" y2="252.236" gradientUnits="userSpaceOnUse">
<stop offset="0.479167" stop-color="#5FC5FF"/>
<stop offset="1" stop-color="#0066FF"/>
</linearGradient>
<linearGradient id="paint29_linear_46_2" x1="64.7949" y1="238.04" x2="64.7949" y2="254" gradientUnits="userSpaceOnUse">
<stop offset="0.479167" stop-color="#5FC5FF"/>
<stop offset="1" stop-color="#0066FF"/>
</linearGradient>
<linearGradient id="paint30_linear_46_2" x1="80.9252" y1="239.924" x2="80.9252" y2="252.236" gradientUnits="userSpaceOnUse">
<stop offset="0.479167" stop-color="#5FC5FF"/>
<stop offset="1" stop-color="#0066FF"/>
</linearGradient>
<linearGradient id="paint31_linear_46_2" x1="95.7688" y1="217.755" x2="95.7688" y2="230.067" gradientUnits="userSpaceOnUse">
<stop offset="0.479167" stop-color="#5FC5FF"/>
<stop offset="1" stop-color="#0066FF"/>
</linearGradient>
<linearGradient id="paint32_linear_46_2" x1="111.899" y1="216" x2="111.899" y2="231.96" gradientUnits="userSpaceOnUse">
<stop offset="0.479167" stop-color="#5FC5FF"/>
<stop offset="1" stop-color="#0066FF"/>
</linearGradient>
<linearGradient id="paint33_linear_46_2" x1="128.046" y1="217.755" x2="128.046" y2="230.067" gradientUnits="userSpaceOnUse">
<stop offset="0.479167" stop-color="#5FC5FF"/>
<stop offset="1" stop-color="#0066FF"/>
</linearGradient>
<linearGradient id="paint34_linear_46_2" x1="144.111" y1="216" x2="144.111" y2="231.944" gradientUnits="userSpaceOnUse">
<stop offset="0.479167" stop-color="#5FC5FF"/>
<stop offset="1" stop-color="#0066FF"/>
</linearGradient>
<linearGradient id="paint35_linear_46_2" x1="96.6429" y1="236.04" x2="96.6429" y2="251.984" gradientUnits="userSpaceOnUse">
<stop offset="0.479167" stop-color="#5FC5FF"/>
<stop offset="1" stop-color="#0066FF"/>
</linearGradient>
<linearGradient id="paint36_linear_46_2" x1="112.717" y1="237.924" x2="112.717" y2="250.236" gradientUnits="userSpaceOnUse">
<stop offset="0.479167" stop-color="#5FC5FF"/>
<stop offset="1" stop-color="#0066FF"/>
</linearGradient>
<linearGradient id="paint37_linear_46_2" x1="128.863" y1="236.04" x2="128.863" y2="252" gradientUnits="userSpaceOnUse">
<stop offset="0.479167" stop-color="#5FC5FF"/>
<stop offset="1" stop-color="#0066FF"/>
</linearGradient>
<linearGradient id="paint38_linear_46_2" x1="144.994" y1="237.924" x2="144.994" y2="250.236" gradientUnits="userSpaceOnUse">
<stop offset="0.479167" stop-color="#5FC5FF"/>
<stop offset="1" stop-color="#0066FF"/>
</linearGradient>
<clipPath id="clip0_46_2">
<rect width="303" height="263" fill="white"/>
</clipPath>
</defs>
</svg>
