<svg width="302" height="263" viewBox="0 0 302 263" fill="none" xmlns="http://www.w3.org/2000/svg">
<ellipse cx="173.471" cy="131.5" rx="128.529" ry="131.5" fill="url(#paint0_linear_46_19)"/>
<path d="M162.256 185.044C162.256 187.539 161.979 189.958 161.452 192.276C158.423 205.692 147.14 215.656 133.683 215.656H28.5682C20.6807 215.656 13.5363 212.228 8.36727 206.69C3.19828 201.151 0 193.501 0 185.044C0 168.135 12.7884 154.426 28.5682 154.426H30.6188C31.8088 145.874 35.849 138.314 41.6717 132.891C47.4898 127.468 55.0904 124.187 63.4059 124.187C67.0604 124.187 70.5738 124.832 73.8615 126.002C77.309 121.138 81.7631 117.141 86.8851 114.354C88.2396 113.619 89.6412 112.968 91.0852 112.409C95.0971 110.852 99.4289 110 103.944 110C124.804 110 141.712 128.118 141.712 150.47V155.662C147.648 157.521 152.784 161.387 156.438 166.528C160.088 171.668 162.256 178.084 162.256 185.044Z" fill="url(#paint1_linear_46_19)"/>
<path d="M14.0161 232.326C14.0161 233.216 14.7445 233.944 15.6348 233.944C16.5251 233.944 17.2535 233.216 17.2535 232.326V228.683L19.892 230.108C20.1348 230.237 20.3938 230.302 20.6528 230.302C21.2355 230.302 21.7859 229.995 22.0772 229.444C22.4819 228.667 22.1905 227.68 21.4136 227.259L19.0341 225.98L21.4136 224.701C22.2067 224.281 22.4981 223.293 22.0772 222.516C21.6564 221.739 20.669 221.432 19.892 221.853L17.2535 223.277V219.619C17.2535 218.728 16.5251 218 15.6348 218C14.7445 218 14.0161 218.728 14.0161 219.619V223.277L11.3776 221.853C10.5844 221.432 9.6132 221.723 9.19234 222.516C8.77147 223.309 9.06284 224.281 9.85601 224.701L12.2355 225.98L9.85601 227.259C9.06284 227.68 8.77147 228.667 9.19234 229.444C9.4837 229.995 10.0502 230.302 10.6168 230.302C10.8758 230.302 11.1348 230.237 11.3776 230.108L14.0161 228.683V232.326V232.326Z" fill="url(#paint2_linear_46_19)"/>
<path d="M28.4064 231.856C28.6492 232.002 28.9243 232.067 29.1833 232.067C29.7499 232.067 30.3002 231.759 30.6078 231.225L35.6258 222.16C36.0628 221.383 35.7715 220.396 34.9945 219.959C34.2175 219.522 33.2301 219.813 32.7931 220.59L27.7751 229.655C27.338 230.432 27.6294 231.419 28.4064 231.856Z" fill="url(#paint3_linear_46_19)"/>
<path d="M54.338 222.516C53.9171 221.723 52.9459 221.432 52.1528 221.853L49.4495 223.293V219.619C49.4495 218.728 48.7211 218 47.8308 218C46.9405 218 46.2121 218.728 46.2121 219.619V223.293L43.5089 221.853C42.7157 221.432 41.7445 221.739 41.3236 222.516C40.9028 223.309 41.2103 224.281 41.9873 224.701L44.383 225.98L41.9873 227.259C41.1941 227.68 40.9028 228.651 41.3236 229.444C41.615 229.995 42.1815 230.302 42.7481 230.302C43.0071 230.302 43.2661 230.237 43.5089 230.108L46.2121 228.667V232.342C46.2121 233.232 46.9405 233.96 47.8308 233.96C48.7211 233.96 49.4495 233.232 49.4495 232.342V228.667L52.1528 230.108C52.3956 230.237 52.6546 230.302 52.9135 230.302C53.4963 230.302 54.0466 229.995 54.338 229.444C54.7589 228.651 54.4675 227.68 53.6743 227.259L51.2787 225.98L53.6743 224.701C54.4675 224.281 54.7589 223.309 54.338 222.516Z" fill="url(#paint4_linear_46_19)"/>
<path d="M60.6833 231.856C60.9261 232.002 61.2013 232.067 61.4603 232.067C62.0269 232.067 62.5772 231.759 62.8848 231.225L67.9028 222.16C68.3398 221.383 68.0484 220.396 67.2715 219.959C66.4945 219.522 65.5071 219.813 65.07 220.59L60.052 229.655C59.615 230.432 59.9064 231.419 60.6833 231.856Z" fill="url(#paint5_linear_46_19)"/>
<path d="M85.8218 227.259L83.4423 225.98L85.8218 224.701C86.615 224.281 86.9064 223.293 86.4855 222.516C86.0646 221.739 85.0772 221.432 84.3002 221.853L81.6618 223.277V219.619C81.6618 218.728 80.9333 218 80.0431 218C79.1528 218 78.4243 218.728 78.4243 219.619V223.277L75.7859 221.853C74.9927 221.432 74.0215 221.723 73.6006 222.516C73.1797 223.309 73.4711 224.281 74.2643 224.701L76.6438 225.98L74.2643 227.259C73.4711 227.68 73.1797 228.667 73.6006 229.444C73.892 229.995 74.4585 230.302 75.0251 230.302C75.2841 230.302 75.5431 230.237 75.7859 230.108L78.4243 228.683V232.326C78.4243 233.216 79.1528 233.944 80.0431 233.944C80.9333 233.944 81.6618 233.216 81.6618 232.326V228.683L84.3002 230.108C84.543 230.237 84.802 230.302 85.061 230.302C85.6438 230.302 86.1941 229.995 86.4855 229.444C86.9064 228.667 86.615 227.68 85.8218 227.259Z" fill="url(#paint6_linear_46_19)"/>
<path d="M13.2067 252.025C13.4495 252.171 13.7247 252.236 13.9837 252.236C14.5664 252.236 15.1168 251.944 15.4082 251.394L20.4261 242.329C20.8632 241.552 20.5718 240.565 19.7949 240.128C19.0179 239.691 18.0305 239.982 17.5934 240.759L12.5754 249.824C12.1384 250.601 12.4297 251.588 13.2067 252.025Z" fill="url(#paint7_linear_46_19)"/>
<path d="M30.9477 248.723V252.365C30.9477 253.255 31.6761 253.984 32.5664 253.984C33.4567 253.984 34.1851 253.255 34.1851 252.365V248.723L36.8236 250.147C37.0664 250.277 37.3254 250.342 37.5844 250.342C38.1672 250.342 38.7175 250.034 39.0089 249.484C39.4459 248.707 39.1384 247.719 38.3614 247.299L35.9819 246.02L38.3614 244.741C39.1546 244.32 39.4459 243.333 39.0251 242.556C38.6042 241.763 37.6168 241.471 36.8398 241.892L34.2013 243.317V239.658C34.2013 238.768 33.4729 238.04 32.5826 238.04C31.6923 238.04 30.9639 238.768 30.9639 239.658V243.3L28.3254 241.876C27.5323 241.455 26.561 241.746 26.1402 242.54C25.7193 243.333 26.0107 244.304 26.8038 244.725L29.1833 246.004L26.7877 247.299C25.9945 247.719 25.7031 248.707 26.124 249.484C26.4154 250.034 26.9819 250.342 27.5485 250.342C27.8074 250.342 28.0664 250.277 28.3092 250.147L30.9477 248.723Z" fill="url(#paint8_linear_46_19)"/>
<path d="M46.1312 252.236C46.6977 252.236 47.2643 251.944 47.5556 251.394L52.5736 242.329C53.0107 241.552 52.7193 240.565 51.9423 240.128C51.1654 239.691 50.1779 239.982 49.7409 240.759L44.7229 249.824C44.2859 250.601 44.5772 251.588 45.3542 252.025C45.597 252.171 45.8722 252.236 46.1312 252.236Z" fill="url(#paint9_linear_46_19)"/>
<path d="M71.302 249.484C71.7229 248.691 71.4154 247.719 70.6384 247.299L68.2427 246.02L70.6384 244.741C71.4315 244.32 71.7229 243.349 71.302 242.556C70.8812 241.763 69.91 241.471 69.1168 241.892L66.4136 243.333V239.658C66.4136 238.768 65.6851 238.04 64.7948 238.04C63.9046 238.04 63.1761 238.768 63.1761 239.658V243.333L60.4729 241.892C59.6797 241.471 58.7085 241.779 58.2877 242.556C57.8668 243.349 58.1743 244.32 58.9513 244.741L61.347 246.02L58.9513 247.299C58.1582 247.719 57.8668 248.691 58.2877 249.484C58.579 250.034 59.1456 250.342 59.7121 250.342C59.9711 250.342 60.2301 250.277 60.4729 250.147L63.1761 248.707V252.381C63.1761 253.272 63.9046 254 64.7948 254C65.6851 254 66.4136 253.272 66.4136 252.381V248.707L69.1168 250.147C69.3596 250.277 69.6186 250.342 69.8776 250.342C70.4603 250.342 71.0107 250.034 71.302 249.484Z" fill="url(#paint10_linear_46_19)"/>
<path d="M84.2193 240.128C83.4423 239.691 82.4549 239.982 82.0179 240.759L76.9999 249.824C76.5628 250.601 76.8542 251.588 77.6312 252.025C77.874 252.171 78.1492 252.236 78.4082 252.236C78.9909 252.236 79.5412 251.944 79.8326 251.394L84.8506 242.329C85.2876 241.552 84.9963 240.565 84.2193 240.128Z" fill="url(#paint11_linear_46_19)"/>
<path d="M92.4747 229.856C92.7175 230.002 92.9927 230.067 93.2517 230.067C93.8182 230.067 94.3686 229.759 94.6762 229.225L99.6941 220.16C100.131 219.383 99.8398 218.396 99.0628 217.959C98.2859 217.522 97.2985 217.813 96.8614 218.59L91.8434 227.655C91.4064 228.432 91.6977 229.419 92.4747 229.856Z" fill="url(#paint12_linear_46_19)"/>
<path d="M118.406 220.516C117.985 219.723 117.014 219.432 116.221 219.853L113.518 221.293V217.619C113.518 216.728 112.789 216 111.899 216C111.009 216 110.28 216.728 110.28 217.619V221.293L107.577 219.853C106.784 219.432 105.813 219.739 105.392 220.516C104.971 221.309 105.279 222.281 106.056 222.701L108.451 223.98L106.056 225.259C105.262 225.68 104.971 226.651 105.392 227.444C105.683 227.995 106.25 228.302 106.816 228.302C107.075 228.302 107.334 228.237 107.577 228.108L110.28 226.667V230.342C110.28 231.232 111.009 231.96 111.899 231.96C112.789 231.96 113.518 231.232 113.518 230.342V226.667L116.221 228.108C116.464 228.237 116.723 228.302 116.982 228.302C117.565 228.302 118.115 227.995 118.406 227.444C118.827 226.651 118.536 225.68 117.743 225.259L115.347 223.98L117.743 222.701C118.536 222.281 118.827 221.309 118.406 220.516Z" fill="url(#paint13_linear_46_19)"/>
<path d="M124.752 229.856C124.994 230.002 125.27 230.067 125.529 230.067C126.095 230.067 126.646 229.759 126.953 229.225L131.971 220.16C132.408 219.383 132.117 218.396 131.34 217.959C130.563 217.522 129.575 217.813 129.138 218.59L124.12 227.655C123.683 228.432 123.975 229.419 124.752 229.856Z" fill="url(#paint14_linear_46_19)"/>
<path d="M149.89 225.259L147.511 223.98L149.89 222.701C150.683 222.281 150.975 221.293 150.554 220.516C150.133 219.739 149.146 219.432 148.369 219.853L145.73 221.277V217.619C145.73 216.728 145.002 216 144.111 216C143.221 216 142.493 216.728 142.493 217.619V221.277L139.854 219.853C139.061 219.432 138.09 219.723 137.669 220.516C137.248 221.309 137.539 222.281 138.333 222.701L140.712 223.98L138.333 225.259C137.539 225.68 137.248 226.667 137.669 227.444C137.96 227.995 138.527 228.302 139.093 228.302C139.352 228.302 139.611 228.237 139.854 228.108L142.493 226.683V230.326C142.493 231.216 143.221 231.944 144.111 231.944C145.002 231.944 145.73 231.216 145.73 230.326V226.683L148.369 228.108C148.611 228.237 148.87 228.302 149.129 228.302C149.712 228.302 150.262 227.995 150.554 227.444C150.975 226.667 150.683 225.68 149.89 225.259Z" fill="url(#paint15_linear_46_19)"/>
<path d="M95.0161 246.723V250.365C95.0161 251.255 95.7445 251.984 96.6348 251.984C97.5251 251.984 98.2535 251.255 98.2535 250.365V246.723L100.892 248.147C101.135 248.277 101.394 248.342 101.653 248.342C102.235 248.342 102.786 248.034 103.077 247.484C103.514 246.707 103.207 245.719 102.43 245.299L100.05 244.02L102.43 242.741C103.223 242.32 103.514 241.333 103.093 240.556C102.673 239.763 101.685 239.471 100.908 239.892L98.2697 241.317V237.658C98.2697 236.768 97.5413 236.04 96.651 236.04C95.7607 236.04 95.0323 236.768 95.0323 237.658V241.3L92.3938 239.876C91.6006 239.455 90.6294 239.746 90.2085 240.54C89.7877 241.333 90.079 242.304 90.8722 242.725L93.2517 244.004L90.856 245.299C90.0628 245.719 89.7715 246.707 90.1923 247.484C90.4837 248.034 91.0502 248.342 91.6168 248.342C91.8758 248.342 92.1348 248.277 92.3776 248.147L95.0161 246.723Z" fill="url(#paint16_linear_46_19)"/>
<path d="M110.2 250.236C110.766 250.236 111.333 249.944 111.624 249.394L116.642 240.329C117.079 239.552 116.788 238.565 116.011 238.128C115.234 237.691 114.246 237.982 113.809 238.759L108.791 247.824C108.354 248.601 108.646 249.588 109.423 250.025C109.665 250.171 109.941 250.236 110.2 250.236Z" fill="url(#paint17_linear_46_19)"/>
<path d="M135.37 247.484C135.791 246.691 135.484 245.719 134.707 245.299L132.311 244.02L134.707 242.741C135.5 242.32 135.791 241.349 135.37 240.556C134.95 239.763 133.978 239.471 133.185 239.892L130.482 241.333V237.658C130.482 236.768 129.753 236.04 128.863 236.04C127.973 236.04 127.244 236.768 127.244 237.658V241.333L124.541 239.892C123.748 239.471 122.777 239.779 122.356 240.556C121.935 241.349 122.243 242.32 123.02 242.741L125.415 244.02L123.02 245.299C122.227 245.719 121.935 246.691 122.356 247.484C122.647 248.034 123.214 248.342 123.78 248.342C124.039 248.342 124.298 248.277 124.541 248.147L127.244 246.707V250.381C127.244 251.272 127.973 252 128.863 252C129.753 252 130.482 251.272 130.482 250.381V246.707L133.185 248.147C133.428 248.277 133.687 248.342 133.946 248.342C134.529 248.342 135.079 248.034 135.37 247.484Z" fill="url(#paint18_linear_46_19)"/>
<path d="M148.288 238.128C147.511 237.691 146.523 237.982 146.086 238.759L141.068 247.824C140.631 248.601 140.923 249.588 141.7 250.025C141.942 250.171 142.218 250.236 142.477 250.236C143.059 250.236 143.61 249.944 143.901 249.394L148.919 240.329C149.356 239.552 149.065 238.565 148.288 238.128Z" fill="url(#paint19_linear_46_19)"/>
<path d="M255.448 48.9406C248.592 34.1858 234.006 24 217.121 24C198.729 24 183.067 36.0845 177.149 52.9953C162.588 53.7325 151 66.176 151 81.4201C151 97.1383 163.319 109.88 178.516 109.88H250.973C267.336 109.88 280.6 96.1607 280.6 79.2365C280.6 63.8857 269.687 51.172 255.448 48.9406Z" fill="url(#paint20_linear_46_19)"/>
<path d="M173.256 120.441C173.256 121.01 173.728 121.476 174.306 121.476C174.884 121.476 175.357 121.01 175.357 120.441V118.111L177.069 119.022C177.227 119.105 177.395 119.147 177.563 119.147C177.941 119.147 178.299 118.95 178.488 118.598C178.75 118.101 178.561 117.47 178.057 117.2L176.513 116.383L178.057 115.565C178.572 115.296 178.761 114.664 178.488 114.167C178.215 113.67 177.574 113.474 177.069 113.743L175.357 114.654V112.314C175.357 111.745 174.884 111.279 174.306 111.279C173.728 111.279 173.256 111.745 173.256 112.314V114.654L171.543 113.743C171.028 113.474 170.398 113.66 170.125 114.167C169.852 114.675 170.041 115.296 170.556 115.565L172.1 116.383L170.556 117.2C170.041 117.47 169.852 118.101 170.125 118.598C170.314 118.95 170.682 119.147 171.049 119.147C171.217 119.147 171.386 119.105 171.543 119.022L173.256 118.111V120.441V120.441Z" fill="url(#paint21_linear_46_19)"/>
<path d="M182.596 120.14C182.753 120.234 182.932 120.275 183.1 120.275C183.468 120.275 183.825 120.078 184.024 119.737L187.281 113.94C187.565 113.443 187.376 112.811 186.872 112.532C186.367 112.252 185.726 112.438 185.443 112.935L182.186 118.732C181.902 119.229 182.091 119.861 182.596 120.14Z" fill="url(#paint22_linear_46_19)"/>
<path d="M199.427 114.167C199.153 113.66 198.523 113.474 198.008 113.743L196.254 114.664V112.314C196.254 111.745 195.781 111.279 195.203 111.279C194.625 111.279 194.152 111.745 194.152 112.314V114.664L192.398 113.743C191.883 113.474 191.253 113.67 190.98 114.167C190.706 114.675 190.906 115.296 191.41 115.565L192.965 116.383L191.41 117.2C190.896 117.47 190.706 118.091 190.98 118.598C191.169 118.95 191.536 119.147 191.904 119.147C192.072 119.147 192.24 119.105 192.398 119.022L194.152 118.101V120.451C194.152 121.02 194.625 121.486 195.203 121.486C195.781 121.486 196.254 121.02 196.254 120.451V118.101L198.008 119.022C198.166 119.105 198.334 119.147 198.502 119.147C198.88 119.147 199.237 118.95 199.427 118.598C199.7 118.091 199.511 117.47 198.996 117.2L197.441 116.383L198.996 115.565C199.511 115.296 199.7 114.675 199.427 114.167Z" fill="url(#paint23_linear_46_19)"/>
<path d="M203.545 120.14C203.703 120.234 203.881 120.275 204.049 120.275C204.417 120.275 204.774 120.078 204.974 119.737L208.231 113.94C208.514 113.443 208.325 112.811 207.821 112.532C207.317 112.252 206.676 112.438 206.392 112.935L203.135 118.732C202.852 119.229 203.041 119.861 203.545 120.14Z" fill="url(#paint24_linear_46_19)"/>
<path d="M219.861 117.2L218.317 116.383L219.861 115.565C220.376 115.296 220.565 114.664 220.292 114.167C220.019 113.67 219.378 113.474 218.873 113.743L217.161 114.654V112.314C217.161 111.745 216.688 111.279 216.11 111.279C215.532 111.279 215.06 111.745 215.06 112.314V114.654L213.347 113.743C212.832 113.474 212.202 113.66 211.929 114.167C211.656 114.675 211.845 115.296 212.36 115.565L213.904 116.383L212.36 117.2C211.845 117.47 211.656 118.101 211.929 118.598C212.118 118.95 212.486 119.147 212.853 119.147C213.021 119.147 213.19 119.105 213.347 119.022L215.06 118.111V120.441C215.06 121.01 215.532 121.476 216.11 121.476C216.688 121.476 217.161 121.01 217.161 120.441V118.111L218.873 119.022C219.031 119.105 219.199 119.147 219.367 119.147C219.745 119.147 220.103 118.95 220.292 118.598C220.565 118.101 220.376 117.47 219.861 117.2Z" fill="url(#paint25_linear_46_19)"/>
<path d="M172.73 133.039C172.888 133.132 173.067 133.174 173.235 133.174C173.613 133.174 173.97 132.987 174.159 132.635L177.416 126.838C177.7 126.341 177.511 125.71 177.006 125.43C176.502 125.151 175.861 125.337 175.578 125.834L172.321 131.631C172.037 132.128 172.226 132.759 172.73 133.039Z" fill="url(#paint26_linear_46_19)"/>
<path d="M184.245 130.927V133.256C184.245 133.826 184.718 134.292 185.296 134.292C185.874 134.292 186.346 133.826 186.346 133.256V130.927L188.059 131.838C188.216 131.921 188.385 131.962 188.553 131.962C188.931 131.962 189.288 131.766 189.477 131.414C189.761 130.917 189.561 130.285 189.057 130.016L187.513 129.198L189.057 128.381C189.572 128.111 189.761 127.48 189.488 126.983C189.215 126.476 188.574 126.289 188.069 126.559L186.357 127.47V125.13C186.357 124.561 185.884 124.095 185.306 124.095C184.728 124.095 184.256 124.561 184.256 125.13V127.459L182.543 126.548C182.028 126.279 181.398 126.465 181.125 126.973C180.852 127.48 181.041 128.101 181.556 128.37L183.1 129.188L181.545 130.016C181.03 130.285 180.841 130.917 181.114 131.414C181.303 131.766 181.671 131.962 182.039 131.962C182.207 131.962 182.375 131.921 182.533 131.838L184.245 130.927Z" fill="url(#paint27_linear_46_19)"/>
<path d="M194.1 133.174C194.468 133.174 194.835 132.987 195.024 132.635L198.281 126.838C198.565 126.341 198.376 125.71 197.872 125.43C197.367 125.151 196.726 125.337 196.443 125.834L193.186 131.631C192.902 132.128 193.091 132.759 193.596 133.039C193.753 133.132 193.932 133.174 194.1 133.174Z" fill="url(#paint28_linear_46_19)"/>
<path d="M210.437 131.414C210.71 130.906 210.511 130.285 210.006 130.016L208.451 129.198L210.006 128.381C210.521 128.111 210.71 127.49 210.437 126.983C210.164 126.476 209.533 126.289 209.019 126.559L207.264 127.48V125.13C207.264 124.561 206.791 124.095 206.214 124.095C205.636 124.095 205.163 124.561 205.163 125.13V127.48L203.408 126.559C202.894 126.289 202.263 126.486 201.99 126.983C201.717 127.49 201.916 128.111 202.421 128.381L203.976 129.198L202.421 130.016C201.906 130.285 201.717 130.906 201.99 131.414C202.179 131.766 202.547 131.962 202.915 131.962C203.083 131.962 203.251 131.921 203.408 131.838L205.163 130.917V133.267C205.163 133.836 205.636 134.302 206.214 134.302C206.791 134.302 207.264 133.836 207.264 133.267V130.917L209.019 131.838C209.176 131.921 209.344 131.962 209.512 131.962C209.891 131.962 210.248 131.766 210.437 131.414Z" fill="url(#paint29_linear_46_19)"/>
<path d="M218.821 125.43C218.317 125.151 217.676 125.337 217.392 125.834L214.135 131.631C213.851 132.128 214.041 132.759 214.545 133.039C214.702 133.132 214.881 133.174 215.049 133.174C215.427 133.174 215.785 132.987 215.974 132.635L219.231 126.838C219.514 126.341 219.325 125.71 218.821 125.43Z" fill="url(#paint30_linear_46_19)"/>
<path d="M224.179 118.861C224.337 118.954 224.515 118.996 224.683 118.996C225.051 118.996 225.408 118.799 225.608 118.458L228.865 112.66C229.148 112.164 228.959 111.532 228.455 111.253C227.951 110.973 227.31 111.159 227.026 111.656L223.769 117.453C223.486 117.95 223.675 118.582 224.179 118.861Z" fill="url(#paint31_linear_46_19)"/>
<path d="M241.01 112.888C240.737 112.381 240.106 112.195 239.592 112.464L237.837 113.385V111.035C237.837 110.466 237.364 110 236.786 110C236.209 110 235.736 110.466 235.736 111.035V113.385L233.981 112.464C233.467 112.195 232.836 112.391 232.563 112.888C232.29 113.395 232.489 114.017 232.994 114.286L234.549 115.104L232.994 115.921C232.479 116.19 232.29 116.812 232.563 117.319C232.752 117.671 233.12 117.868 233.488 117.868C233.656 117.868 233.824 117.826 233.981 117.743L235.736 116.822V119.172C235.736 119.741 236.209 120.207 236.786 120.207C237.364 120.207 237.837 119.741 237.837 119.172V116.822L239.592 117.743C239.749 117.826 239.917 117.868 240.085 117.868C240.464 117.868 240.821 117.671 241.01 117.319C241.283 116.812 241.094 116.19 240.579 115.921L239.024 115.104L240.579 114.286C241.094 114.017 241.283 113.395 241.01 112.888Z" fill="url(#paint32_linear_46_19)"/>
<path d="M245.128 118.861C245.286 118.954 245.465 118.996 245.633 118.996C246 118.996 246.358 118.799 246.557 118.458L249.814 112.66C250.098 112.164 249.909 111.532 249.404 111.253C248.9 110.973 248.259 111.159 247.975 111.656L244.719 117.453C244.435 117.95 244.624 118.582 245.128 118.861Z" fill="url(#paint33_linear_46_19)"/>
<path d="M261.444 115.921L259.9 115.104L261.444 114.286C261.959 114.017 262.148 113.385 261.875 112.888C261.602 112.391 260.961 112.195 260.457 112.464L258.744 113.375V111.035C258.744 110.466 258.272 110 257.694 110C257.116 110 256.643 110.466 256.643 111.035V113.375L254.931 112.464C254.416 112.195 253.785 112.381 253.512 112.888C253.239 113.395 253.428 114.017 253.943 114.286L255.487 115.104L253.943 115.921C253.428 116.19 253.239 116.822 253.512 117.319C253.701 117.671 254.069 117.868 254.437 117.868C254.605 117.868 254.773 117.826 254.931 117.743L256.643 116.832V119.162C256.643 119.731 257.116 120.197 257.694 120.197C258.272 120.197 258.744 119.731 258.744 119.162V116.832L260.457 117.743C260.614 117.826 260.783 117.868 260.951 117.868C261.329 117.868 261.686 117.671 261.875 117.319C262.148 116.822 261.959 116.19 261.444 115.921Z" fill="url(#paint34_linear_46_19)"/>
<path d="M225.829 129.648V131.977C225.829 132.547 226.301 133.013 226.879 133.013C227.457 133.013 227.93 132.547 227.93 131.977V129.648L229.642 130.559C229.8 130.642 229.968 130.683 230.136 130.683C230.514 130.683 230.871 130.487 231.061 130.135C231.344 129.638 231.145 129.006 230.64 128.737L229.096 127.919L230.64 127.102C231.155 126.832 231.344 126.201 231.071 125.704C230.798 125.197 230.157 125.01 229.653 125.28L227.94 126.191V123.851C227.94 123.282 227.467 122.816 226.89 122.816C226.312 122.816 225.839 123.282 225.839 123.851V126.18L224.127 125.269C223.612 125 222.981 125.186 222.708 125.694C222.435 126.201 222.624 126.822 223.139 127.091L224.683 127.909L223.128 128.737C222.614 129.006 222.425 129.638 222.698 130.135C222.887 130.487 223.255 130.683 223.622 130.683C223.79 130.683 223.958 130.642 224.116 130.559L225.829 129.648Z" fill="url(#paint35_linear_46_19)"/>
<path d="M235.683 131.894C236.051 131.894 236.419 131.708 236.608 131.356L239.865 125.559C240.148 125.062 239.959 124.431 239.455 124.151C238.951 123.872 238.31 124.058 238.026 124.555L234.769 130.352C234.486 130.849 234.675 131.48 235.179 131.76C235.337 131.853 235.515 131.894 235.683 131.894Z" fill="url(#paint36_linear_46_19)"/>
<path d="M252.02 130.135C252.294 129.627 252.094 129.006 251.59 128.737L250.035 127.919L251.59 127.102C252.104 126.832 252.294 126.211 252.02 125.704C251.747 125.197 251.117 125.01 250.602 125.28L248.848 126.201V123.851C248.848 123.282 248.375 122.816 247.797 122.816C247.219 122.816 246.746 123.282 246.746 123.851V126.201L244.992 125.28C244.477 125.01 243.847 125.207 243.573 125.704C243.3 126.211 243.5 126.832 244.004 127.102L245.559 127.919L244.004 128.737C243.489 129.006 243.3 129.627 243.573 130.135C243.763 130.487 244.13 130.683 244.498 130.683C244.666 130.683 244.834 130.642 244.992 130.559L246.746 129.638V131.988C246.746 132.557 247.219 133.023 247.797 133.023C248.375 133.023 248.848 132.557 248.848 131.988V129.638L250.602 130.559C250.76 130.642 250.928 130.683 251.096 130.683C251.474 130.683 251.831 130.487 252.02 130.135Z" fill="url(#paint37_linear_46_19)"/>
<path d="M260.404 124.151C259.9 123.872 259.259 124.058 258.975 124.555L255.719 130.352C255.435 130.849 255.624 131.48 256.128 131.76C256.286 131.853 256.464 131.894 256.633 131.894C257.011 131.894 257.368 131.708 257.557 131.356L260.814 125.559C261.098 125.062 260.909 124.431 260.404 124.151Z" fill="url(#paint38_linear_46_19)"/>
<defs>
<linearGradient id="paint0_linear_46_19" x1="92" y1="-5.97621e-07" x2="243" y2="246" gradientUnits="userSpaceOnUse">
<stop stop-color="#00A4FF"/>
<stop offset="1" stop-color="#CB00FE"/>
</linearGradient>
<linearGradient id="paint1_linear_46_19" x1="81.1282" y1="110" x2="81.1282" y2="215.656" gradientUnits="userSpaceOnUse">
<stop stop-color="#00A4FF"/>
<stop offset="1" stop-color="#31155F"/>
</linearGradient>
<linearGradient id="paint2_linear_46_19" x1="15.6348" y1="218" x2="15.6348" y2="233.944" gradientUnits="userSpaceOnUse">
<stop stop-color="#003565"/>
<stop offset="1" stop-color="#31155F"/>
</linearGradient>
<linearGradient id="paint3_linear_46_19" x1="31.7004" y1="219.755" x2="31.7004" y2="232.067" gradientUnits="userSpaceOnUse">
<stop stop-color="#003565"/>
<stop offset="1" stop-color="#31155F"/>
</linearGradient>
<linearGradient id="paint4_linear_46_19" x1="47.8308" y1="218" x2="47.8308" y2="233.96" gradientUnits="userSpaceOnUse">
<stop stop-color="#003565"/>
<stop offset="1" stop-color="#31155F"/>
</linearGradient>
<linearGradient id="paint5_linear_46_19" x1="63.9774" y1="219.755" x2="63.9774" y2="232.067" gradientUnits="userSpaceOnUse">
<stop stop-color="#003565"/>
<stop offset="1" stop-color="#31155F"/>
</linearGradient>
<linearGradient id="paint6_linear_46_19" x1="80.0431" y1="218" x2="80.0431" y2="233.944" gradientUnits="userSpaceOnUse">
<stop stop-color="#003565"/>
<stop offset="1" stop-color="#31155F"/>
</linearGradient>
<linearGradient id="paint7_linear_46_19" x1="16.5008" y1="239.924" x2="16.5008" y2="252.236" gradientUnits="userSpaceOnUse">
<stop stop-color="#003565"/>
<stop offset="1" stop-color="#31155F"/>
</linearGradient>
<linearGradient id="paint8_linear_46_19" x1="32.5745" y1="238.04" x2="32.5745" y2="253.984" gradientUnits="userSpaceOnUse">
<stop stop-color="#003565"/>
<stop offset="1" stop-color="#31155F"/>
</linearGradient>
<linearGradient id="paint9_linear_46_19" x1="48.6483" y1="239.924" x2="48.6483" y2="252.236" gradientUnits="userSpaceOnUse">
<stop stop-color="#003565"/>
<stop offset="1" stop-color="#31155F"/>
</linearGradient>
<linearGradient id="paint10_linear_46_19" x1="64.7949" y1="238.04" x2="64.7949" y2="254" gradientUnits="userSpaceOnUse">
<stop stop-color="#003565"/>
<stop offset="1" stop-color="#31155F"/>
</linearGradient>
<linearGradient id="paint11_linear_46_19" x1="80.9252" y1="239.924" x2="80.9252" y2="252.236" gradientUnits="userSpaceOnUse">
<stop stop-color="#003565"/>
<stop offset="1" stop-color="#31155F"/>
</linearGradient>
<linearGradient id="paint12_linear_46_19" x1="95.7688" y1="217.755" x2="95.7688" y2="230.067" gradientUnits="userSpaceOnUse">
<stop stop-color="#003565"/>
<stop offset="1" stop-color="#31155F"/>
</linearGradient>
<linearGradient id="paint13_linear_46_19" x1="111.899" y1="216" x2="111.899" y2="231.96" gradientUnits="userSpaceOnUse">
<stop stop-color="#003565"/>
<stop offset="1" stop-color="#31155F"/>
</linearGradient>
<linearGradient id="paint14_linear_46_19" x1="128.046" y1="217.755" x2="128.046" y2="230.067" gradientUnits="userSpaceOnUse">
<stop stop-color="#003565"/>
<stop offset="1" stop-color="#31155F"/>
</linearGradient>
<linearGradient id="paint15_linear_46_19" x1="144.111" y1="216" x2="144.111" y2="231.944" gradientUnits="userSpaceOnUse">
<stop stop-color="#003565"/>
<stop offset="1" stop-color="#31155F"/>
</linearGradient>
<linearGradient id="paint16_linear_46_19" x1="96.6429" y1="236.04" x2="96.6429" y2="251.984" gradientUnits="userSpaceOnUse">
<stop stop-color="#003565"/>
<stop offset="1" stop-color="#31155F"/>
</linearGradient>
<linearGradient id="paint17_linear_46_19" x1="112.717" y1="237.924" x2="112.717" y2="250.236" gradientUnits="userSpaceOnUse">
<stop stop-color="#003565"/>
<stop offset="1" stop-color="#31155F"/>
</linearGradient>
<linearGradient id="paint18_linear_46_19" x1="128.863" y1="236.04" x2="128.863" y2="252" gradientUnits="userSpaceOnUse">
<stop stop-color="#003565"/>
<stop offset="1" stop-color="#31155F"/>
</linearGradient>
<linearGradient id="paint19_linear_46_19" x1="144.994" y1="237.924" x2="144.994" y2="250.236" gradientUnits="userSpaceOnUse">
<stop stop-color="#003565"/>
<stop offset="1" stop-color="#31155F"/>
</linearGradient>
<linearGradient id="paint20_linear_46_19" x1="215.8" y1="24" x2="215.8" y2="109.88" gradientUnits="userSpaceOnUse">
<stop stop-color="#0085FF"/>
<stop offset="1" stop-color="#31155F"/>
</linearGradient>
<linearGradient id="paint21_linear_46_19" x1="174.306" y1="111.279" x2="174.306" y2="121.476" gradientUnits="userSpaceOnUse">
<stop stop-color="#003565"/>
<stop offset="1" stop-color="#31155F"/>
</linearGradient>
<linearGradient id="paint22_linear_46_19" x1="184.734" y1="112.401" x2="184.734" y2="120.275" gradientUnits="userSpaceOnUse">
<stop stop-color="#003565"/>
<stop offset="1" stop-color="#31155F"/>
</linearGradient>
<linearGradient id="paint23_linear_46_19" x1="195.203" y1="111.279" x2="195.203" y2="121.486" gradientUnits="userSpaceOnUse">
<stop stop-color="#003565"/>
<stop offset="1" stop-color="#31155F"/>
</linearGradient>
<linearGradient id="paint24_linear_46_19" x1="205.683" y1="112.401" x2="205.683" y2="120.275" gradientUnits="userSpaceOnUse">
<stop stop-color="#003565"/>
<stop offset="1" stop-color="#31155F"/>
</linearGradient>
<linearGradient id="paint25_linear_46_19" x1="216.11" y1="111.279" x2="216.11" y2="121.476" gradientUnits="userSpaceOnUse">
<stop stop-color="#003565"/>
<stop offset="1" stop-color="#31155F"/>
</linearGradient>
<linearGradient id="paint26_linear_46_19" x1="174.868" y1="125.3" x2="174.868" y2="133.174" gradientUnits="userSpaceOnUse">
<stop stop-color="#003565"/>
<stop offset="1" stop-color="#31155F"/>
</linearGradient>
<linearGradient id="paint27_linear_46_19" x1="185.301" y1="124.095" x2="185.301" y2="134.292" gradientUnits="userSpaceOnUse">
<stop stop-color="#003565"/>
<stop offset="1" stop-color="#31155F"/>
</linearGradient>
<linearGradient id="paint28_linear_46_19" x1="195.734" y1="125.3" x2="195.734" y2="133.174" gradientUnits="userSpaceOnUse">
<stop stop-color="#003565"/>
<stop offset="1" stop-color="#31155F"/>
</linearGradient>
<linearGradient id="paint29_linear_46_19" x1="206.214" y1="124.095" x2="206.214" y2="134.302" gradientUnits="userSpaceOnUse">
<stop stop-color="#003565"/>
<stop offset="1" stop-color="#31155F"/>
</linearGradient>
<linearGradient id="paint30_linear_46_19" x1="216.683" y1="125.3" x2="216.683" y2="133.174" gradientUnits="userSpaceOnUse">
<stop stop-color="#003565"/>
<stop offset="1" stop-color="#31155F"/>
</linearGradient>
<linearGradient id="paint31_linear_46_19" x1="226.317" y1="111.122" x2="226.317" y2="118.996" gradientUnits="userSpaceOnUse">
<stop stop-color="#003565"/>
<stop offset="1" stop-color="#31155F"/>
</linearGradient>
<linearGradient id="paint32_linear_46_19" x1="236.786" y1="110" x2="236.786" y2="120.207" gradientUnits="userSpaceOnUse">
<stop stop-color="#003565"/>
<stop offset="1" stop-color="#31155F"/>
</linearGradient>
<linearGradient id="paint33_linear_46_19" x1="247.266" y1="111.122" x2="247.266" y2="118.996" gradientUnits="userSpaceOnUse">
<stop stop-color="#003565"/>
<stop offset="1" stop-color="#31155F"/>
</linearGradient>
<linearGradient id="paint34_linear_46_19" x1="257.694" y1="110" x2="257.694" y2="120.197" gradientUnits="userSpaceOnUse">
<stop stop-color="#003565"/>
<stop offset="1" stop-color="#31155F"/>
</linearGradient>
<linearGradient id="paint35_linear_46_19" x1="226.884" y1="122.816" x2="226.884" y2="133.013" gradientUnits="userSpaceOnUse">
<stop stop-color="#003565"/>
<stop offset="1" stop-color="#31155F"/>
</linearGradient>
<linearGradient id="paint36_linear_46_19" x1="237.317" y1="124.021" x2="237.317" y2="131.894" gradientUnits="userSpaceOnUse">
<stop stop-color="#003565"/>
<stop offset="1" stop-color="#31155F"/>
</linearGradient>
<linearGradient id="paint37_linear_46_19" x1="247.797" y1="122.816" x2="247.797" y2="133.023" gradientUnits="userSpaceOnUse">
<stop stop-color="#003565"/>
<stop offset="1" stop-color="#31155F"/>
</linearGradient>
<linearGradient id="paint38_linear_46_19" x1="258.266" y1="124.021" x2="258.266" y2="131.894" gradientUnits="userSpaceOnUse">
<stop stop-color="#003565"/>
<stop offset="1" stop-color="#31155F"/>
</linearGradient>
</defs>
</svg>
