<svg width="457" height="457" viewBox="0 0 457 457" fill="none" xmlns="http://www.w3.org/2000/svg">
<path d="M241.27 379.3H215.27V456.54H241.27V379.3Z" fill="url(#paint0_linear_7_5)"/>
<path d="M241.27 0H215.27V77.24H241.27V0Z" fill="url(#paint1_linear_7_5)"/>
<path d="M57.6668 380.488L76.0514 398.873L130.667 344.257L112.283 325.873L57.6668 380.488Z" fill="url(#paint2_linear_7_5)"/>
<path d="M325.872 112.283L344.257 130.667L398.873 76.0517L380.488 57.6671L325.872 112.283Z" fill="url(#paint3_linear_7_5)"/>
<path d="M77.24 215.27H0V241.27H77.24V215.27Z" fill="url(#paint4_linear_7_5)"/>
<path d="M456.54 215.27H379.3V241.27H456.54V215.27Z" fill="url(#paint5_linear_7_5)"/>
<path d="M76.0522 57.6674L57.6676 76.052L112.283 130.668L130.668 112.283L76.0522 57.6674Z" fill="url(#paint6_linear_7_5)"/>
<path d="M344.257 325.872L325.872 344.257L380.488 398.873L398.873 380.488L344.257 325.872Z" fill="url(#paint7_linear_7_5)"/>
<path d="M228.267 352.274C296.752 352.274 352.27 296.756 352.27 228.271C352.27 159.786 296.752 104.268 228.267 104.268C159.782 104.268 104.264 159.786 104.264 228.271C104.264 296.756 159.782 352.274 228.267 352.274Z" fill="url(#paint8_linear_7_5)"/>
<path d="M228.267 323.413C280.812 323.413 323.409 280.816 323.409 228.271C323.409 175.726 280.812 133.129 228.267 133.129C175.722 133.129 133.125 175.726 133.125 228.271C133.125 280.816 175.722 323.413 228.267 323.413Z" fill="url(#paint9_linear_7_5)"/>
<defs>
<linearGradient id="paint0_linear_7_5" x1="228.198" y1="378.792" x2="228.836" y2="456.535" gradientUnits="userSpaceOnUse">
<stop stop-color="#FAFF00"/>
<stop offset="1" stop-color="#FF9900"/>
</linearGradient>
<linearGradient id="paint1_linear_7_5" x1="228.198" y1="-0.507557" x2="228.836" y2="77.2353" gradientUnits="userSpaceOnUse">
<stop stop-color="#FAFF00"/>
<stop offset="1" stop-color="#FF9900"/>
</linearGradient>
<linearGradient id="paint2_linear_7_5" x1="66.5514" y1="390.091" x2="121.071" y2="334.668" gradientUnits="userSpaceOnUse">
<stop stop-color="#FAFF00"/>
<stop offset="1" stop-color="#FF9900"/>
</linearGradient>
<linearGradient id="paint3_linear_7_5" x1="334.757" y1="121.885" x2="389.277" y2="66.4625" gradientUnits="userSpaceOnUse">
<stop stop-color="#FAFF00"/>
<stop offset="1" stop-color="#FF9900"/>
</linearGradient>
<linearGradient id="paint4_linear_7_5" x1="38.4051" y1="215.099" x2="38.4295" y2="241.27" gradientUnits="userSpaceOnUse">
<stop stop-color="#FAFF00"/>
<stop offset="1" stop-color="#FF9900"/>
</linearGradient>
<linearGradient id="paint5_linear_7_5" x1="417.705" y1="215.099" x2="417.729" y2="241.27" gradientUnits="userSpaceOnUse">
<stop stop-color="#FAFF00"/>
<stop offset="1" stop-color="#FF9900"/>
</linearGradient>
<linearGradient id="paint6_linear_7_5" x1="66.4499" y1="66.552" x2="121.872" y2="121.072" gradientUnits="userSpaceOnUse">
<stop stop-color="#FAFF00"/>
<stop offset="1" stop-color="#FF9900"/>
</linearGradient>
<linearGradient id="paint7_linear_7_5" x1="334.655" y1="334.757" x2="390.077" y2="389.277" gradientUnits="userSpaceOnUse">
<stop stop-color="#FAFF00"/>
<stop offset="1" stop-color="#FF9900"/>
</linearGradient>
<linearGradient id="paint8_linear_7_5" x1="227.577" y1="102.638" x2="228.267" y2="352.274" gradientUnits="userSpaceOnUse">
<stop stop-color="#FAFF00"/>
<stop offset="1" stop-color="#FF9900"/>
</linearGradient>
<linearGradient id="paint9_linear_7_5" x1="227.738" y1="131.879" x2="228.267" y2="323.413" gradientUnits="userSpaceOnUse">
<stop stop-color="#FAFF00"/>
<stop offset="1" stop-color="#FF9900"/>
</linearGradient>
</defs>
</svg>
