<svg width="1854" height="2928" viewBox="0 0 1854 2928" fill="none" xmlns="http://www.w3.org/2000/svg">
<rect width="1854" height="2928" fill="#F5F5F5"/>
<g filter="url(#filter0_d_0_1)">
<path d="M1081.11 497.491C1372.8 688.724 1393.61 379.491 1685.11 497.491" stroke="url(#paint0_linear_0_1)" stroke-width="2"/>
</g>
<circle cx="1109" cy="38" r="37.5" stroke="url(#paint1_linear_0_1)"/>
<g clip-path="url(#clip0_0_1)">
<path d="M1560.27 401.3H1534.27V478.54H1560.27V401.3Z" fill="url(#paint2_linear_0_1)"/>
<path d="M1560.27 22H1534.27V99.24H1560.27V22Z" fill="url(#paint3_linear_0_1)"/>
<path d="M1376.67 402.488L1395.05 420.873L1449.67 366.257L1431.28 347.873L1376.67 402.488Z" fill="url(#paint4_linear_0_1)"/>
<path d="M1644.87 134.283L1663.26 152.667L1717.87 98.0517L1699.49 79.6671L1644.87 134.283Z" fill="url(#paint5_linear_0_1)"/>
<path d="M1396.24 237.27H1319V263.27H1396.24V237.27Z" fill="url(#paint6_linear_0_1)"/>
<path d="M1775.54 237.27H1698.3V263.27H1775.54V237.27Z" fill="url(#paint7_linear_0_1)"/>
<path d="M1395.05 79.6674L1376.67 98.052L1431.28 152.668L1449.67 134.283L1395.05 79.6674Z" fill="url(#paint8_linear_0_1)"/>
<path d="M1663.26 347.872L1644.87 366.257L1699.49 420.873L1717.87 402.488L1663.26 347.872Z" fill="url(#paint9_linear_0_1)"/>
<path d="M1547.27 374.274C1615.75 374.274 1671.27 318.756 1671.27 250.271C1671.27 181.786 1615.75 126.268 1547.27 126.268C1478.78 126.268 1423.26 181.786 1423.26 250.271C1423.26 318.756 1478.78 374.274 1547.27 374.274Z" fill="url(#paint10_linear_0_1)"/>
<path d="M1547.27 345.413C1599.81 345.413 1642.41 302.816 1642.41 250.271C1642.41 197.726 1599.81 155.129 1547.27 155.129C1494.72 155.129 1452.12 197.726 1452.12 250.271C1452.12 302.816 1494.72 345.413 1547.27 345.413Z" fill="url(#paint11_linear_0_1)"/>
</g>
<g clip-path="url(#clip1_0_1)">
<path d="M923.369 192.793C911.517 198.728 897.098 193.931 891.163 182.079C888.415 176.591 887.972 170.555 889.461 165.063C878.197 171.236 873.745 185.263 879.544 196.844C885.479 208.696 899.898 213.493 911.75 207.558C918.114 204.371 922.44 198.737 924.167 192.368C923.903 192.513 923.64 192.658 923.369 192.793Z" fill="url(#paint12_linear_0_1)"/>
</g>
<path d="M845.355 443.645C835.912 434.201 823.355 429 810 429C796.645 429 784.088 434.201 774.645 443.645C765.201 453.088 760 465.645 760 479C760 492.355 765.201 504.912 774.645 514.355C784.088 523.799 796.645 529 810 529C823.355 529 835.912 523.799 845.355 514.355C854.799 504.912 860 492.355 860 479C860 465.645 854.799 453.088 845.355 443.645Z" fill="url(#paint13_linear_0_1)"/>
<g clip-path="url(#clip2_0_1)">
<path d="M1430.49 745.122H1414.06V793.94H1430.49V745.122Z" fill="url(#paint14_linear_0_1)"/>
<path d="M1483.96 816.088L1495.58 827.708L1530.1 793.189L1518.48 781.569L1483.96 816.088Z" fill="url(#paint15_linear_0_1)"/>
<path d="M1326.82 881.179H1278V897.612H1326.82V881.179Z" fill="url(#paint16_linear_0_1)"/>
<path d="M1314.45 793.189L1348.97 827.708L1360.59 816.088L1326.07 781.569L1314.45 793.189Z" fill="url(#paint17_linear_0_1)"/>
<path d="M1422.27 811.022C1378.99 811.022 1343.9 846.112 1343.9 889.397C1343.9 932.681 1378.99 967.771 1422.27 967.771C1465.56 967.771 1500.65 932.681 1500.65 889.397C1500.65 846.113 1465.56 811.022 1422.27 811.022Z" fill="url(#paint18_linear_0_1)"/>
<path d="M1640.43 992.566C1640.43 997.516 1639.84 1002.32 1638.72 1006.92C1632.28 1033.54 1608.29 1053.31 1579.68 1053.31H1356.19C1339.42 1053.31 1324.23 1046.5 1313.24 1035.52C1302.25 1024.53 1295.45 1009.35 1295.45 992.566C1295.45 959.016 1322.64 931.816 1356.19 931.816H1360.55C1363.08 914.846 1371.67 899.846 1384.05 889.086C1396.42 878.326 1412.58 871.816 1430.26 871.816C1438.03 871.816 1445.5 873.096 1452.49 875.416C1459.82 865.766 1469.29 857.836 1480.18 852.306C1483.06 850.846 1486.04 849.556 1489.11 848.446C1497.64 845.356 1506.85 843.666 1516.45 843.666C1560.8 843.666 1596.75 879.616 1596.75 923.966V934.267C1609.37 937.957 1620.29 945.627 1628.06 955.827C1635.82 966.026 1640.43 978.756 1640.43 992.566Z" fill="url(#paint19_linear_0_1)"/>
</g>
<g clip-path="url(#clip3_0_1)">
<path d="M819.088 904.764C788.965 904.764 764.554 880.896 764.554 851.457C764.554 834.986 772.195 820.276 784.19 810.5C747.728 811.184 718.364 840.22 718.364 876.017C718.364 912.226 748.412 941.591 785.492 941.591C815.54 941.591 840.972 922.293 849.53 895.69C840.831 901.412 830.362 904.764 819.088 904.764Z" fill="url(#paint20_linear_0_1)"/>
<path d="M960.62 886.795C954.646 854.06 926.068 829.227 891.591 829.227C867.377 829.227 846.028 841.484 833.396 860.127C829.735 858.376 825.699 857.318 821.364 857.318C805.848 857.318 793.273 869.893 793.273 885.409L793.292 885.643L788.591 885.409C760.154 885.409 737.091 908.472 737.091 936.909C737.091 938.651 737.185 940.345 737.353 942.04C721.36 944.213 709 957.781 709 974.364C709 992.473 723.673 1007.14 741.773 1007.14H947.773C981.398 1007.14 1008.64 979.889 1008.64 946.273C1008.64 917.068 988.055 892.685 960.62 886.795Z" fill="url(#paint21_linear_0_1)"/>
</g>
<g clip-path="url(#clip4_0_1)">
<path d="M662 1610.25C662 1722.35 753.2 1813.45 865.2 1813.45C916.8 1813.45 964 1794.05 999.9 1762.25L1129.4 1891.75C1131.8 1894.15 1134.9 1895.35 1138.1 1895.35C1141.3 1895.35 1144.4 1894.15 1146.8 1891.75C1151.6 1886.95 1151.6 1879.25 1146.8 1874.45L1017.2 1744.95C1049 1709.05 1068.4 1661.95 1068.4 1610.25C1068.4 1498.15 977.2 1407.05 865.2 1407.05C753.2 1407.05 662 1498.15 662 1610.25ZM1043.9 1610.25C1043.9 1708.75 963.7 1788.95 865.2 1788.95C766.7 1788.95 686.5 1708.75 686.5 1610.25C686.5 1511.75 766.7 1431.55 865.2 1431.55C963.7 1431.55 1043.9 1511.65 1043.9 1610.25Z" fill="url(#paint22_linear_0_1)"/>
</g>
<rect x="1442" y="1261" width="412" height="618" fill="url(#paint23_linear_0_1)"/>
<g filter="url(#filter1_d_0_1)">
<circle cx="376" cy="2552" r="226" fill="url(#paint24_linear_0_1)"/>
</g>
<defs>
<filter id="filter0_d_0_1" x="1076.56" y="468.793" width="612.923" height="101.783" filterUnits="userSpaceOnUse" color-interpolation-filters="sRGB">
<feFlood flood-opacity="0" result="BackgroundImageFix"/>
<feColorMatrix in="SourceAlpha" type="matrix" values="0 0 0 0 0 0 0 0 0 0 0 0 0 0 0 0 0 0 127 0" result="hardAlpha"/>
<feOffset dy="4"/>
<feGaussianBlur stdDeviation="2"/>
<feComposite in2="hardAlpha" operator="out"/>
<feColorMatrix type="matrix" values="0 0 0 0 0 0 0 0 0 0 0 0 0 0 0 0 0 0 0.25 0"/>
<feBlend mode="normal" in2="BackgroundImageFix" result="effect1_dropShadow_0_1"/>
<feBlend mode="normal" in="SourceGraphic" in2="effect1_dropShadow_0_1" result="shape"/>
</filter>
<filter id="filter1_d_0_1" x="0" y="2176" width="752" height="752" filterUnits="userSpaceOnUse" color-interpolation-filters="sRGB">
<feFlood flood-opacity="0" result="BackgroundImageFix"/>
<feColorMatrix in="SourceAlpha" type="matrix" values="0 0 0 0 0 0 0 0 0 0 0 0 0 0 0 0 0 0 127 0" result="hardAlpha"/>
<feMorphology radius="50" operator="dilate" in="SourceAlpha" result="effect1_dropShadow_0_1"/>
<feOffset/>
<feGaussianBlur stdDeviation="50"/>
<feComposite in2="hardAlpha" operator="out"/>
<feColorMatrix type="matrix" values="0 0 0 0 0.98 0 0 0 0 1 0 0 0 0 0 0 0 0 0.74 0"/>
<feBlend mode="normal" in2="BackgroundImageFix" result="effect1_dropShadow_0_1"/>
<feBlend mode="normal" in="SourceGraphic" in2="effect1_dropShadow_0_1" result="shape"/>
</filter>
<linearGradient id="paint0_linear_0_1" x1="1081.11" y1="561.991" x2="1683.61" y2="567.991" gradientUnits="userSpaceOnUse">
<stop stop-color="#F7D716"/>
<stop offset="0.375172" stop-color="#EC9B3B"/>
<stop offset="0.61382" stop-color="#F24C4C"/>
<stop offset="0.810813" stop-color="#293462"/>
</linearGradient>
<linearGradient id="paint1_linear_0_1" x1="1146" y1="24" x2="1072" y2="50" gradientUnits="userSpaceOnUse">
<stop stop-color="#AD00FF"/>
<stop offset="1" stop-color="#DBFF00"/>
</linearGradient>
<linearGradient id="paint2_linear_0_1" x1="1547.2" y1="400.792" x2="1547.84" y2="478.535" gradientUnits="userSpaceOnUse">
<stop stop-color="#FAFF00"/>
<stop offset="1" stop-color="#FF9900"/>
</linearGradient>
<linearGradient id="paint3_linear_0_1" x1="1547.2" y1="21.4924" x2="1547.84" y2="99.2353" gradientUnits="userSpaceOnUse">
<stop stop-color="#FAFF00"/>
<stop offset="1" stop-color="#FF9900"/>
</linearGradient>
<linearGradient id="paint4_linear_0_1" x1="1385.55" y1="412.091" x2="1440.07" y2="356.668" gradientUnits="userSpaceOnUse">
<stop stop-color="#FAFF00"/>
<stop offset="1" stop-color="#FF9900"/>
</linearGradient>
<linearGradient id="paint5_linear_0_1" x1="1653.76" y1="143.885" x2="1708.28" y2="88.4625" gradientUnits="userSpaceOnUse">
<stop stop-color="#FAFF00"/>
<stop offset="1" stop-color="#FF9900"/>
</linearGradient>
<linearGradient id="paint6_linear_0_1" x1="1357.41" y1="237.099" x2="1357.43" y2="263.27" gradientUnits="userSpaceOnUse">
<stop stop-color="#FAFF00"/>
<stop offset="1" stop-color="#FF9900"/>
</linearGradient>
<linearGradient id="paint7_linear_0_1" x1="1736.71" y1="237.099" x2="1736.73" y2="263.27" gradientUnits="userSpaceOnUse">
<stop stop-color="#FAFF00"/>
<stop offset="1" stop-color="#FF9900"/>
</linearGradient>
<linearGradient id="paint8_linear_0_1" x1="1385.45" y1="88.552" x2="1440.87" y2="143.072" gradientUnits="userSpaceOnUse">
<stop stop-color="#FAFF00"/>
<stop offset="1" stop-color="#FF9900"/>
</linearGradient>
<linearGradient id="paint9_linear_0_1" x1="1653.65" y1="356.757" x2="1709.08" y2="411.277" gradientUnits="userSpaceOnUse">
<stop stop-color="#FAFF00"/>
<stop offset="1" stop-color="#FF9900"/>
</linearGradient>
<linearGradient id="paint10_linear_0_1" x1="1546.58" y1="124.638" x2="1547.27" y2="374.274" gradientUnits="userSpaceOnUse">
<stop stop-color="#FAFF00"/>
<stop offset="1" stop-color="#FF9900"/>
</linearGradient>
<linearGradient id="paint11_linear_0_1" x1="1546.74" y1="153.879" x2="1547.27" y2="345.413" gradientUnits="userSpaceOnUse">
<stop stop-color="#FAFF00"/>
<stop offset="1" stop-color="#FF9900"/>
</linearGradient>
<linearGradient id="paint12_linear_0_1" x1="887" y1="165" x2="924" y2="196" gradientUnits="userSpaceOnUse">
<stop stop-color="#0066FF"/>
<stop offset="0.583333" stop-color="#9E00FF"/>
</linearGradient>
<linearGradient id="paint13_linear_0_1" x1="771" y1="442" x2="849" y2="521" gradientUnits="userSpaceOnUse">
<stop stop-color="#9A9EFF"/>
<stop offset="1" stop-color="#31155F"/>
</linearGradient>
<linearGradient id="paint14_linear_0_1" x1="1422.27" y1="745.122" x2="1422.27" y2="793.94" gradientUnits="userSpaceOnUse">
<stop stop-color="#FAFF00"/>
<stop offset="1" stop-color="#FF9900"/>
</linearGradient>
<linearGradient id="paint15_linear_0_1" x1="1489.77" y1="821.898" x2="1524.29" y2="787.379" gradientUnits="userSpaceOnUse">
<stop stop-color="#FAFF00"/>
<stop offset="1" stop-color="#FF9900"/>
</linearGradient>
<linearGradient id="paint16_linear_0_1" x1="1302.41" y1="881.179" x2="1302.41" y2="897.612" gradientUnits="userSpaceOnUse">
<stop stop-color="#FAFF00"/>
<stop offset="1" stop-color="#FF9900"/>
</linearGradient>
<linearGradient id="paint17_linear_0_1" x1="1331.71" y1="810.448" x2="1343.33" y2="798.829" gradientUnits="userSpaceOnUse">
<stop stop-color="#FAFF00"/>
<stop offset="1" stop-color="#FF9900"/>
</linearGradient>
<linearGradient id="paint18_linear_0_1" x1="1422.27" y1="811.022" x2="1422.27" y2="967.771" gradientUnits="userSpaceOnUse">
<stop stop-color="#FAFF00"/>
<stop offset="1" stop-color="#FF9900"/>
</linearGradient>
<linearGradient id="paint19_linear_0_1" x1="1467.94" y1="843.666" x2="1467.94" y2="1053.31" gradientUnits="userSpaceOnUse">
<stop stop-color="#00A4FF"/>
<stop offset="1" stop-color="white"/>
</linearGradient>
<linearGradient id="paint20_linear_0_1" x1="783.947" y1="810.5" x2="783.947" y2="941.591" gradientUnits="userSpaceOnUse">
<stop stop-color="#9A9EFF"/>
<stop offset="1" stop-color="#31155F"/>
</linearGradient>
<linearGradient id="paint21_linear_0_1" x1="858.818" y1="829.227" x2="858.818" y2="1007.14" gradientUnits="userSpaceOnUse">
<stop stop-color="#303030"/>
<stop offset="1" stop-color="#606060"/>
</linearGradient>
<linearGradient id="paint22_linear_0_1" x1="748" y1="1435" x2="1146" y2="1897" gradientUnits="userSpaceOnUse">
<stop stop-color="#00A4FF"/>
<stop offset="1" stop-color="white"/>
</linearGradient>
<linearGradient id="paint23_linear_0_1" x1="1648" y1="1261" x2="1648" y2="1879" gradientUnits="userSpaceOnUse">
<stop stop-color="#00A4FF"/>
<stop offset="1" stop-color="#14FFC7"/>
</linearGradient>
<linearGradient id="paint24_linear_0_1" x1="376" y1="2326" x2="376" y2="2778" gradientUnits="userSpaceOnUse">
<stop offset="0.369792" stop-color="#FAFF00"/>
<stop offset="1" stop-color="#FF9900"/>
</linearGradient>
<clipPath id="clip0_0_1">
<rect width="456.54" height="456.54" fill="white" transform="translate(1319 22)"/>
</clipPath>
<clipPath id="clip1_0_1">
<rect width="47.167" height="47.167" fill="white" transform="translate(877 164)"/>
</clipPath>
<clipPath id="clip2_0_1">
<rect width="362.429" height="362.429" fill="white" transform="translate(1278 718)"/>
</clipPath>
<clipPath id="clip3_0_1">
<rect width="299.637" height="299.637" fill="white" transform="translate(709 759)"/>
</clipPath>
<clipPath id="clip4_0_1">
<rect width="488.4" height="488.4" fill="white" transform="translate(662 1407)"/>
</clipPath>
</defs>
</svg>
