<svg width="218" height="230" viewBox="0 0 218 230" fill="none" xmlns="http://www.w3.org/2000/svg">
<path d="M10.3146 126.122H174.623C198.445 126.122 217.824 106.741 217.824 82.9206C217.824 59.1348 198.5 39.7768 174.726 39.7205C172.384 39.6851 157.177 39.8956 145.821 50.9675C138.213 58.385 134.356 68.5772 134.356 81.2595C134.356 86.8596 138.895 91.3991 144.496 91.3991C150.096 91.3991 154.635 86.8592 154.635 81.2595C154.635 74.3137 156.4 69.0394 159.879 65.5846C165.302 60.1991 173.737 60.0052 174.412 59.9984C174.507 60.0014 174.495 59.9999 174.623 59.9999C187.262 59.9999 197.545 70.2823 197.545 82.9206C197.545 95.5597 187.262 105.842 174.623 105.842H10.3146C4.71454 105.842 0.175049 110.382 0.175049 115.982C0.175049 121.582 4.71454 126.122 10.3146 126.122Z" fill="url(#paint0_linear_31_39)"/>
<path d="M10.3146 86.4033H88.6322C112.453 86.4033 131.832 67.0232 131.832 43.2024C131.832 19.4151 112.51 0.0563701 88.7348 0.00225244C86.3649 -0.0308195 71.1815 0.18039 59.8289 11.2493C52.2216 18.6676 48.3642 28.8597 48.3642 41.5421C48.3642 47.1421 52.9033 51.6823 58.5037 51.6823C64.1042 51.6823 68.6425 47.1425 68.6425 41.5421C68.6425 34.5962 70.4077 29.322 73.887 25.8671C79.309 20.4824 87.7445 20.287 88.4214 20.2802C88.5161 20.2832 88.5033 20.2817 88.6318 20.2817C101.27 20.2817 111.553 30.5641 111.553 43.2024C111.553 55.8415 101.271 66.1239 88.6318 66.1239H10.3146C4.71454 66.1239 0.175049 70.6637 0.175049 76.2642C0.175049 81.8646 4.71454 86.4033 10.3146 86.4033Z" fill="url(#paint1_linear_31_39)"/>
<path d="M174.623 143.597H10.3146C4.71454 143.597 0.175049 148.137 0.175049 153.737C0.175049 159.336 4.71417 163.876 10.3146 163.876H174.623C187.262 163.876 197.545 174.158 197.545 186.797C197.545 199.436 187.263 209.718 174.623 209.718C174.496 209.718 174.507 209.716 174.412 209.72C173.737 209.713 165.302 209.518 159.88 204.134C156.4 200.679 154.635 195.405 154.635 188.458C154.635 182.858 150.096 178.318 144.496 178.318C138.896 178.318 134.357 182.858 134.357 188.458C134.357 201.141 138.213 211.333 145.821 218.751C156.72 229.378 171.154 230.001 174.381 230C174.517 230 174.632 229.999 174.727 229.998C198.501 229.941 217.824 210.583 217.824 186.798C217.824 162.976 198.445 143.597 174.623 143.597Z" fill="url(#paint2_linear_31_39)"/>
<defs>
<linearGradient id="paint0_linear_31_39" x1="-23" y1="33.8952" x2="37.413" y2="211.557" gradientUnits="userSpaceOnUse">
<stop stop-color="#00294F"/>
<stop offset="1" stop-color="white"/>
</linearGradient>
<linearGradient id="paint1_linear_31_39" x1="-13.8437" y1="-5.82275" x2="70.821" y2="144.788" gradientUnits="userSpaceOnUse">
<stop stop-color="#00294F"/>
<stop offset="1" stop-color="white"/>
</linearGradient>
<linearGradient id="paint2_linear_31_39" x1="-23" y1="137.774" x2="37.4122" y2="315.435" gradientUnits="userSpaceOnUse">
<stop stop-color="#00294F"/>
<stop offset="1" stop-color="white"/>
</linearGradient>
</defs>
</svg>
